<svg xmlns="http://www.w3.org/2000/svg" viewBox="0 0 48 48" role="img"><path d="M24 43v-3h10.997V22.84l3 3.333V41.5A1.5 1.5 0 0136.5 43H24zm18.333-18.496a1.5 1.5 0 01-2.23 2.008l-2.106-2.34-3-3.331-11-12.216-11 12.217-3 3.332-2.1 2.333a1.5 1.5 0 01-2.23-2.007L22.88 5.384c.029-.032.068-.045.098-.073.04-.037.084-.061.125-.093A1.5 1.5 0 0123.471 5c.06-.022.122-.031.184-.046.12-.028.24-.051.361-.05.083 0 .163.02.245.034.1.018.2.036.295.074.1.04.19.103.28.166.07.047.14.09.202.149.025.024.059.035.083.061l17.212 19.116zM20.5 33.5a1.5 1.5 0 010 3h-4v4a1.5 1.5 0 01-3 0v-4h-4a1.5 1.5 0 010-3h4v-4a1.5 1.5 0 013 0v4h4z"/></svg>