<svg xmlns="http://www.w3.org/2000/svg" width="24" height="24" fill="currentColor" role="img" viewBox="0 0 48 48"><path d="M7 32v-6H5.8c-.994 0-1.8-.888-1.8-2 0-1.105.799-2 1.8-2H7v-6H5.8c-.994 0-1.8-.888-1.8-2 0-1.105.799-2 1.8-2H7V7.501C7 6.672 7.668 6 8.5 6h20.91l-3.073 3H10v3h1.2c.994 0 1.8.888 1.8 2 0 1.105-.799 2-1.8 2H10v6h1.2c.994 0 1.8.888 1.8 2 0 1.105-.799 2-1.8 2H10v6h1.2c.994 0 1.8.888 1.8 2 0 1.105-.799 2-1.8 2H10v3h26V21.772l3-2.929V40.5c0 .829-.668 1.501-1.5 1.501h-29A1.5 1.5 0 017 40.499V36H5.8c-.994 0-1.8-.888-1.8-2 0-1.105.799-2 1.8-2H7zm34.566-21.575a1.505 1.505 0 010 2.122L24.562 29.55c-.047.047-.107.066-.158.105-.05.038-.103.073-.158.105a1.446 1.446 0 01-.508.182c-.118.019-.23.033-.35.024H18.5a1.5 1.5 0 01-1.5-1.5V23.47c0-.525.27-.985.678-1.253l16.78-16.778A1.495 1.495 0 0135.517 5c.281 0 .55.105.796.262.09.057.187.097.265.175v.001h.001l4.948 4.95c.007.006.01.015.016.022.006.007.016.009.022.015zM22.902 26.968l11.484-11.484-2.866-2.866L20 24.138v2.83h2.902zm13.605-13.605l1.878-1.878L35.52 8.62l-1.878 1.878 2.866 2.866z"/></svg>