<svg xmlns="http://www.w3.org/2000/svg" width="24" height="24" fill="currentColor" role="img" viewBox="0 0 48 48"><path fill-rule="evenodd" clip-rule="evenodd" d="M14.5 16a2.5 2.5 0 100-5 2.5 2.5 0 000 5zm0 3a5.502 5.502 0 005.293-4H40.5a1.5 1.5 0 000-3H19.793a5.502 5.502 0 00-10.586 0H7.5a1.5 1.5 0 000 3h1.707a5.502 5.502 0 005.293 4zm19 7a2.5 2.5 0 100-5 2.5 2.5 0 000 5zm5.293-1a5.502 5.502 0 01-10.586 0H7.5a1.5 1.5 0 010-3h20.707a5.502 5.502 0 0110.586 0H40.5a1.5 1.5 0 010 3h-1.707zM17 34.5a2.5 2.5 0 11-5 0 2.5 2.5 0 015 0zm2.793 1.5a5.502 5.502 0 01-10.586 0H7.5a1.5 1.5 0 010-3h1.707a5.502 5.502 0 0110.586 0H40.5a1.5 1.5 0 010 3H19.793z" /></svg>