<svg xmlns="http://www.w3.org/2000/svg" width="24" height="24" fill="currentColor" role="img" viewBox="0 0 48 48"><path d="M37.51 6.6a22.16 22.16 0 0 1 3.87 3.9 1.5 1.5 0 1 0 2.38-1.83 25.13 25.13 0 0 0-4.4-4.43 1.5 1.5 0 0 0-1.85 2.36zM4.52 10.77a1.5 1.5 0 0 0 2.1-.27 22.16 22.16 0 0 1 3.87-3.9 1.5 1.5 0 0 0-1.85-2.36 25.13 25.13 0 0 0-4.4 4.43 1.5 1.5 0 0 0 .28 2.1zM32.75 27.2l-7.24-4.14V11.5a1.5 1.5 0 0 0-3 0v12.47a1.47 1.47 0 0 0 0 .21v.05a1.49 1.49 0 0 0 .72 1l8 4.56a1.52 1.52 0 0 0 2.07-.55 1.49 1.49 0 0 0-.55-2.04z"/><path d="M44 24a20 20 0 1 0-33.23 15l-2.38 2.48a1.5 1.5 0 0 0 2.18 2.06l2.6-2.75a19.92 19.92 0 0 0 21.66 0l2.6 2.75a1.5 1.5 0 1 0 2.18-2.06L37.23 39A19.93 19.93 0 0 0 44 24zM24 41a17 17 0 1 1 17-17 17 17 0 0 1-17 17z"/></svg>