<svg xmlns="http://www.w3.org/2000/svg" width="24" height="24" fill="currentColor" role="img" viewBox="0 0 48 48"><path d="M22.675 10c1.997 0 4.5-1.322 5.99-3.085C30.016 5.317 31 3.085 31 .854c0-.303-.028-.606-.084-.854-2.222.083-4.894 1.46-6.497 3.306C23.153 4.71 22 6.915 22 9.174c0 .33.056.66.084.77.141.028.366.056.591.056zm-4.45 30c2.425 0 3.5-1.635 6.525-1.635 3.075 0 3.75 1.585 6.45 1.585 2.371 0 4.042-1.973 5.567-4.118l.533-.76c1.875-2.767 2.65-5.483 2.7-5.608-.175-.05-5.25-2.138-5.25-7.997 0-4.535 3.189-6.846 4.032-7.414l.155-.103a.766.766 0 00.038-.027C36.325 10.1 32.3 10 31.2 10c-2.975 0-5.4 1.81-6.925 1.81-1.65 0-3.825-1.71-6.4-1.71C12.975 10.1 8 14.175 8 21.87c0 4.777 1.85 9.832 4.125 13.1 1.95 2.767 3.65 5.03 6.1 5.03z"/></svg>