<svg xmlns="http://www.w3.org/2000/svg" width="24" height="24" fill="currentColor" role="img" viewBox="0 0 48 48"><path d="M13.88 12.42h4a1.5 1.5 0 000-3h-4a1.5 1.5 0 000 3zM37 21a8.88 8.88 0 00-2.38.33l-5.15-11A1.51 1.51 0 0028 9.42h-4a1.5 1.5 0 000 3h3.16l1.16 2.49H17.09a.76.76 0 00-.21 0 1.49 1.49 0 00-1 .82l-2.62 5.57A8.86 8.86 0 0011 21a9 9 0 108.86 10.51h4.1l.19-.07a1 1 0 00.19-.12c.06 0 .12-.1.18-.15l.15-.2.07-.11 5.37-11.52 1.61 3.45A9 9 0 1037 21zm-13.44 5.47l-4-8.56h8zm-6.36-6.53l4 8.57h-1.33a9 9 0 00-3.87-6zm-.39 8.57h-3.6l1.5-3.22a6.08 6.08 0 012.1 3.22zM11 36a6 6 0 111-11.92l-2.47 5.3a1.5 1.5 0 00.73 2 1.32 1.32 0 00.43.12h6.11A6 6 0 0111 36zm26 0a6 6 0 01-3.81-10.63l2.44 5.22a1.5 1.5 0 102.72-1.27l-2.44-5.22A5.68 5.68 0 0137 24a6 6 0 010 12z"/></svg>