<svg xmlns="http://www.w3.org/2000/svg" width="24" height="24" fill="currentColor" role="img" viewBox="0 0 48 48"><path d="M31.5 26.5a1.5 1.5 0 0 1 0 3h-15a1.5 1.5 0 0 1 0-3zm-15-4a1.5 1.5 0 0 1 0-3h15a1.5 1.5 0 0 1 0 3zM9 42.5v-37A1.5 1.5 0 0 1 10.5 4h16.88a1.5 1.5 0 0 1 1.06.44l10.12 10.12a1.5 1.5 0 0 1 .44 1.06V26.5a1.5 1.5 0 0 1-3 0V16l-9-9H12v34h7.2a1.5 1.5 0 1 1 0 3h-8.7A1.5 1.5 0 0 1 9 42.5zm14.56-6.06l3.94 3.94 8.94-8.94a1.5 1.5 0 1 1 2.12 2.12l-10 10a1.49 1.49 0 0 1-2.12 0l-5-5a1.5 1.5 0 0 1 2.12-2.12z"/></svg>