<svg xmlns="http://www.w3.org/2000/svg" xmlns:xlink="http://www.w3.org/1999/xlink" width="24" height="24" fill="currentColor" role="img" viewBox="0 0 48 48"><defs><path id="a" d="M34.167 20.21c.547-1.321.833-2.743.833-4.21 0-6.075-4.925-11-11-11S13 9.925 13 16c0 1.467.286 2.889.833 4.21.346.834 1.847 4.827 6.17 11.379.798.267 2.795.411 3.997.411s3.2-.144 3.997-.411c4.323-6.552 5.824-10.545 6.17-11.38zM24 35c-1.79 0-4.314-.267-5.57-.802a1.5 1.5 0 01-.665-.553c-4.67-7.069-6.237-11.164-6.703-12.286A13.958 13.958 0 0110 16c0-7.732 6.268-14 14-14s14 6.268 14 14a13.97 13.97 0 01-1.062 5.359c-.466 1.122-2.033 5.217-6.703 12.286a1.5 1.5 0 01-.665.553c-1.256.535-3.78.802-5.57.802zm-2.718 6.797c.7.135 1.606.203 2.718.203s2.018-.068 2.718-.203a.693.693 0 01.782.917l-.348.956a1.5 1.5 0 01-.664.787c-.632.362-1.46.543-2.488.543-1.027 0-1.856-.18-2.488-.543a1.5 1.5 0 01-.664-.787l-.348-.956a.693.693 0 01.782-.917zm-1.323-5.065c1.261.198 2.608.297 4.041.297 1.433 0 2.78-.098 4.043-.295a1.059 1.059 0 011.209.883 1.059 1.059 0 01-.002.337l-.087.52a1.5 1.5 0 01-1.193 1.225c-1.132.22-2.456.33-3.97.33-1.514 0-2.838-.11-3.97-.33a1.5 1.5 0 01-1.193-1.226l-.087-.521a1.059 1.059 0 011.209-1.22zM24 8.5a7.5 7.5 0 00-7.5 7.5 1.5 1.5 0 003 0 4.5 4.5 0 014.5-4.5 1.5 1.5 0 000-3z"/></defs><g fill="none" fill-rule="evenodd"><mask id="b" fill="#fff"><use xlink:href="#a"/></mask><use fill="#000" fill-rule="nonzero" xlink:href="#a"/><g mask="url(#b)"><path d="M0 0h48v48H0z"/></g></g></svg>