<svg xmlns="http://www.w3.org/2000/svg" width="24" height="24" fill="currentColor" role="img" viewBox="0 0 48 48"><path d="M36 3H12a5 5 0 00-5 5v28a5 5 0 002 4v4.5a1.5 1.5 0 001.5 1.5h3a1.5 1.5 0 001.5-1.5V41h18v3.5a1.5 1.5 0 001.5 1.5h3a1.5 1.5 0 001.5-1.5V40a5 5 0 002-4V8a5 5 0 00-5-5zM10 25V8a2 2 0 012-2h24a2 2 0 012 2v17zm2 13a2 2 0 01-2-2v-8h28v8a2 2 0 01-2 2H12z"/><path d="M14 31a2 2 0 102 2 2 2 0 00-2-2zM34 31a2 2 0 102 2 2 2 0 00-2-2zM27.5 31.5h-7a1.5 1.5 0 000 3h7a1.5 1.5 0 000-3zM4.5 7A1.5 1.5 0 003 8.5v7a1.5 1.5 0 003 0v-7A1.5 1.5 0 004.5 7zM43.5 7A1.5 1.5 0 0042 8.5v7a1.5 1.5 0 003 0v-7A1.5 1.5 0 0043.5 7z"/></svg>