<svg xmlns="http://www.w3.org/2000/svg" width="24" height="24" fill="currentColor" role="img" viewBox="0 0 48 48"><circle cx="16" cy="22" r="2"/><circle cx="24" cy="22" r="2"/><circle cx="32" cy="22" r="2"/><circle cx="16" cy="29" r="2"/><circle cx="24" cy="29" r="2"/><circle cx="32" cy="29" r="2"/><circle cx="16" cy="36" r="2"/><circle cx="24" cy="36" r="2"/><circle cx="32" cy="36" r="2"/><rect width="20" height="8" x="14" y="9" rx="1" ry="1"/><path d="M36 6a1 1 0 011 1v34a1 1 0 01-1 1H12a1 1 0 01-1-1V7a1 1 0 011-1h24m0-3H12a4 4 0 00-4 4v34a4 4 0 004 4h24a4 4 0 004-4V7a4 4 0 00-4-4z"/></svg>