<svg xmlns="http://www.w3.org/2000/svg" width="24" height="24" fill="currentColor" role="img" viewBox="0 0 48 48"><path d="M42 38.41V12.5a1.5 1.5 0 00-1.5-1.5h-7V9.5a1.5 1.5 0 00-3 0V11h-13V9.5a1.5 1.5 0 00-3 0V11h-7A1.5 1.5 0 006 12.5v26A1.5 1.5 0 007.5 40h33a1.5 1.5 0 001.5-1.5v-.09zM16 17a1.5 1.5 0 001.5-1.5V14h13v1.5a1.5 1.5 0 003 0V14H39v23H9V14h5.5v1.5A1.5 1.5 0 0016 17z"/><circle cx="16" cy="23" r="2"/><circle cx="16" cy="31" r="2"/><circle cx="24.01" cy="23" r="2"/><circle cx="24.01" cy="31" r="2"/><circle cx="32" cy="23" r="2"/><circle cx="32" cy="31" r="2"/></svg>