<svg xmlns="http://www.w3.org/2000/svg" width="24" height="24" fill="currentColor" role="img" viewBox="0 0 48 48"><path d="M28.5 24.5h-9a1.5 1.5 0 000 3h9a1.5 1.5 0 000-3z"/><circle cx="12" cy="26" r="2.5"/><circle cx="35.96" cy="26" r="2.5"/><path d="M45.9 18.14l-2.66.16-1.73.1c-.06-.27-.12-.55-.19-.81a21.42 21.42 0 00-3-6.31l-.56-.81a5.39 5.39 0 00-.51-.67 4.94 4.94 0 00-2-1.34 4.88 4.88 0 00-1.38-.32h-2.34Q27.73 8 23.69 8q-3.69 0-7.28.07H14.26a4.9 4.9 0 00-1.58.34 5 5 0 00-2 1.35l-.5.66c-.19.26-.37.53-.55.79a21.5 21.5 0 00-3 6.36c-.07.27-.13.54-.19.81l-1.73-.1c-.88 0-1.78-.09-2.65-.15a1.5 1.5 0 10-.2 3l2.33.14c-.05.42-.09.84-.12 1.27C4 23.38 4 24.18 4 25v.58a30.2 30.2 0 00.93 6.9l.06.21v5.81A1.5 1.5 0 006.5 40h3a1.5 1.5 0 001.5-1.5v-2.74h1l3.31.1Q19.54 36 24 36t8.69-.11c1.11 0 2.19-.06 3.27-.1H37v2.71a1.5 1.5 0 001.5 1.5h3a1.5 1.5 0 001.5-1.5v-6a.64.64 0 010-.07 30.2 30.2 0 00.93-6.9v-.58c0-.82 0-1.62-.11-2.42 0-.44-.08-.88-.13-1.31l2.34-.14a1.51 1.51 0 001.4-1.6 1.49 1.49 0 00-1.53-1.34zm-33.19-6.05l.31-.41a2 2 0 011.26-.56h.24c1.44 0 2.92-.06 4.45-.08s3.1 0 4.72 0h5.34l4.32.08h.59a1.94 1.94 0 011 .54l.31.41A20.45 20.45 0 0137.6 16c.25.56.45 1.12.64 1.69.08.27.14.55.22.82-4.75.21-9.68.33-14.77.33-4.87 0-9.59-.11-14.15-.3.07-.27.13-.55.22-.82A16.26 16.26 0 0110.4 16a20.45 20.45 0 012.31-3.91zM36 32.8h-.61c-3.53.11-7.3.18-11.35.18s-7.82-.07-11.35-.18h-1.65l-2-.08h-.85A25.38 25.38 0 017.48 30c0-.17-.07-.34-.1-.51A27.38 27.38 0 017 25.41V25c0-.87 0-1.74.13-2.59 0-.31.07-.62.11-.93l1.8.07q7.08.32 14.65.32c5.26 0 10.36-.12 15.27-.34l1.8-.08c0 .32.08.64.11 1 .08.85.13 1.72.13 2.59v.41a27.38 27.38 0 01-.37 4.08c0 .17-.07.34-.1.51a25.81 25.81 0 01-.63 2.63h-.85l-2 .08z"/></svg>