<svg xmlns="http://www.w3.org/2000/svg" width="24" height="24" fill="currentColor" role="img" viewBox="0 0 48 48"><path d="M18.5 15.5c-.825 0-1.5-.675-1.5-1.5s.675-1.5 1.5-1.5h22c.825 0 1.5.675 1.5 1.5s-.675 1.5-1.5 1.5h-22zm-6 7c.825 0 1.5.675 1.5 1.5s-.675 1.5-1.5 1.5h-5c-.825 0-1.5-.675-1.5-1.5s.675-1.5 1.5-1.5h5zm6 3c-.825 0-1.5-.675-1.5-1.5s.675-1.5 1.5-1.5h22c.825 0 1.5.675 1.5 1.5s-.675 1.5-1.5 1.5h-22zm-6 7c.825 0 1.5.675 1.5 1.5s-.675 1.5-1.5 1.5h-5c-.825 0-1.5-.675-1.5-1.5s.675-1.5 1.5-1.5h5zm28 0c.825 0 1.5.675 1.5 1.5s-.675 1.5-1.5 1.5h-22c-.825 0-1.5-.675-1.5-1.5s.675-1.5 1.5-1.5h22zM9 12.88l2.94-2.94a1.5 1.5 0 012.12 2.122l-4 4a1.5 1.5 0 01-2.12 0l-2-2a1.5 1.5 0 012.12-2.122l.94.94z"/></svg>