<svg xmlns="http://www.w3.org/2000/svg" width="24" height="24" fill="currentColor" role="img" viewBox="0 0 48 48"><path d="M13.736 12.113a2.25 2.25 0 00-1.623 1.623l-.037.171a2.25 2.25 0 00.56 1.907L20.818 24l-8.08 8.08a2.239 2.239 0 00-.626 2.185 2.25 2.25 0 001.623 1.623l.171.037a2.25 2.25 0 001.907-.56L24 27.18l8.08 8.08a2.25 2.25 0 003.01.154l.144-.127.123-.133c.78-.907.74-2.237-.095-3.074L27.18 24l8.08-8.08a2.25 2.25 0 00.154-3.01l-.127-.143-.133-.123a2.253 2.253 0 00-3.074.095L24 20.82l-8.08-8.08a2.239 2.239 0 00-2.184-.626z"/></svg>