<svg xmlns="http://www.w3.org/2000/svg" width="24" height="24" fill="currentColor" role="img" viewBox="0 0 48 48"><path d="M40.5 7h-33A1.5 1.5 0 006 8.5v23a1.49 1.49 0 000 .34v.1a1.48 1.48 0 00.09.22l.05.1a1.49 1.49 0 00.14.19l.06.08a1.49 1.49 0 00.6.38h.09a1.49 1.49 0 00.4.06H12v6.5a1.5 1.5 0 00.11.55 1.49 1.49 0 00.82.82 1.46 1.46 0 001.09 0 1.49 1.49 0 00.49-.33L22.12 33H40.5a1.5 1.5 0 001.5-1.5v-23A1.5 1.5 0 0040.5 7zM20.88 30l-3 3L15 35.88V30H9V10h30v20H20.88z"/><circle cx="16" cy="20" r="2"/><circle cx="32" cy="20" r="2"/><circle cx="24" cy="20" r="2"/></svg>