<svg xmlns="http://www.w3.org/2000/svg" width="24" height="24" fill="currentColor" role="img" viewBox="0 0 48 48"><path d="M44 21.16A16 16 0 0028.84 6a1.5 1.5 0 00-.34 0h-23A1.5 1.5 0 004 7.5v19a1.49 1.49 0 000 .34A16 16 0 0020 42h22.5a1.5 1.5 0 001.5-1.5v-19a1.49 1.49 0 000-.34zM20 39A13 13 0 017 26V9h21a13 13 0 0113 13v17H20z"/><path d="M32.13 33H15.87A1.72 1.72 0 0114 31.5a1.72 1.72 0 011.87-1.5h16.26A1.72 1.72 0 0134 31.5a1.72 1.72 0 01-1.87 1.5zM32.76 18H15.24A1.39 1.39 0 0114 16.5a1.39 1.39 0 011.24-1.5h17.52A1.39 1.39 0 0134 16.5a1.39 1.39 0 01-1.24 1.5zM32.76 25.5H15.24a1.52 1.52 0 010-3h17.52a1.52 1.52 0 010 3z"/></svg>