<svg xmlns="http://www.w3.org/2000/svg" width="24" height="24" fill="currentColor" role="img" viewBox="0 0 48 48"><path d="M40 10.5a5.49 5.49 0 00-4.8 8.18l-3 3-4.05-6.08a5.5 5.5 0 10-8.36 0l-4.05 6.08-3-3a5.5 5.5 0 10-5.71 2.74l1.48 12.75A1.5 1.5 0 0010 35.5h28a1.5 1.5 0 001.49-1.33l1.42-12.75A5.5 5.5 0 0040 10.5zm1.27 7.64A2.54 2.54 0 0137.5 16a2.5 2.5 0 113.77 2.14zM21.5 12a2.5 2.5 0 015 0 2.47 2.47 0 01-.15.82 2.49 2.49 0 01-4.7 0 2.47 2.47 0 01-.15-.82zm-16 4a2.5 2.5 0 115 0 2.47 2.47 0 010 .34 2.5 2.5 0 01-5-.34zm31.16 16.5H11.34l-1.27-11.41a5.48 5.48 0 00.6-.29l4.26 4.26a1.5 1.5 0 002.31-.23l5.07-7.6a5.46 5.46 0 003.37 0l5.07 7.6a1.5 1.5 0 002.31.23l4.26-4.26a5.45 5.45 0 00.6.29zM38 38.5H10a1.5 1.5 0 100 3h28a1.5 1.5 0 000-3z"/></svg>