<svg xmlns="http://www.w3.org/2000/svg" width="24" height="24" fill="currentColor" role="img" viewBox="0 0 48 48"><path d="M18 35a5 5 0 105 5 5 5 0 00-5-5zm0 7a2 2 0 112-2 2 2 0 01-2 2zM32 35a5 5 0 105 5 5 5 0 00-5-5zm0 7a2 2 0 112-2 2 2 0 01-2 2zM43 22.25v-.17a17 17 0 00-17-17 1.5 1.5 0 00-1.5 1.5V22H10v-1a6 6 0 00-6-6H2.5a1.5 1.5 0 000 3H4a3 3 0 013 3V28a6 6 0 006 6h24a5.7 5.7 0 001.25-.15 5.57 5.57 0 00.73-.19A6 6 0 0043 28v-.67-3.6-.07zM40 22H27.5V8.17A14 14 0 0140 22zm-2.76 9H13a3 3 0 01-1.86-.66 3.08 3.08 0 01-1-1.34 2.93 2.93 0 01-.14-1v-3h30v3a2.93 2.93 0 01-.18 1 3 3 0 01-2.59 2z"/></svg>