<svg xmlns="http://www.w3.org/2000/svg" width="24" height="24" fill="currentColor" role="img" viewBox="0 0 48 48"><path d="M10 19h13a5 5 0 015 5v13a5 5 0 01-5 5H10a5 5 0 01-5-5V24a5 5 0 015-5zm0 3a2 2 0 00-2 2v13a2 2 0 002 2h13a2 2 0 002-2V24a2 2 0 00-2-2H10zm2 6a2 2 0 110-4 2 2 0 010 4zm0 9a2 2 0 110-4 2 2 0 010 4zm9-9a2 2 0 110-4 2 2 0 010 4zm0 9a2 2 0 110-4 2 2 0 010 4zm10-12h6a2 2 0 002-2V11a2 2 0 00-2-2H25a2 2 0 00-2 2v5h-3v-5a5 5 0 015-5h12a5 5 0 015 5v12a5 5 0 01-5 5h-6v-3zm0-6a2 2 0 110-4 2 2 0 010 4zm4.5 4.5a2 2 0 110-4 2 2 0 010 4zm-9-9a2 2 0 110-4 2 2 0 010 4z"/></svg>