<svg xmlns="http://www.w3.org/2000/svg" width="24" height="24" fill="currentColor" role="img" viewBox="0 0 48 48"><path d="M39.9 15.21a1.46 1.46 0 00-.37-.73l-9.75-9.75A1.49 1.49 0 0028.5 4h-15A1.5 1.5 0 0012 5.5v23.38L7.08 24A1.5 1.5 0 005 26.08l7.48 7.48a1.5 1.5 0 00.49.33 1.49 1.49 0 00.55.11 1.49 1.49 0 00.55-.11 1.5 1.5 0 00.49-.32L22 26.08A1.5 1.5 0 0022 24a1.5 1.5 0 00-2.12 0L15 28.88V7h12.81L37 16.19V41H15v-1.5a1.5 1.5 0 00-3 0v3a1.5 1.5 0 001.5 1.5h25a1.5 1.5 0 001.5-1.5V15.73a1.49 1.49 0 00-.1-.52z"/></svg>