<svg xmlns="http://www.w3.org/2000/svg" width="24" height="24" fill="currentColor" role="img" viewBox="0 0 48 48"><path fill-rule="evenodd" d="M24 7c9.384.01 16.99 7.616 17 17 0 9.389-7.611 17-17 17S7 33.389 7 24 14.611 7 24 7zm0 31c7.728-.01 13.99-6.272 14-14 0-7.732-6.268-14-14-14s-14 6.268-14 14 6.268 14 14 14zm-4.5-14a1.5 1.5 0 01-1.5-1.5v-3a1.5 1.5 0 013 0v3a1.5 1.5 0 01-1.5 1.5zm9 0a1.5 1.5 0 01-1.5-1.5v-3a1.5 1.5 0 013 0v3a1.5 1.5 0 01-1.5 1.5zm.417 5.176l.018.01a1.31 1.31 0 011.43.054c.431.298.674.828.63 1.376-.043.548-.364 1.026-.835 1.244a13.23 13.23 0 01-6.197 1.64 13.049 13.049 0 01-6.188-1.65c-.689-.365-.971-1.26-.63-1.998.34-.738 1.175-1.04 1.864-.676a9.844 9.844 0 009.908 0z"/></svg>