<svg xmlns="http://www.w3.org/2000/svg" width="24" height="24" fill="currentColor" role="img" viewBox="0 0 48 48"><path fill-rule="evenodd" d="M24 7c9.384.01 16.99 7.616 17 17 0 9.389-7.611 17-17 17S7 33.389 7 24 14.611 7 24 7zm0 31c7.728-.01 13.99-6.272 14-14 0-7.732-6.268-14-14-14s-14 6.268-14 14 6.268 14 14 14zm-4.5-14a1.5 1.5 0 01-1.5-1.5v-3a1.5 1.5 0 013 0v3a1.5 1.5 0 01-1.5 1.5zm9 0a1.5 1.5 0 01-1.5-1.5v-3a1.5 1.5 0 013 0v3a1.5 1.5 0 01-1.5 1.5zm.417 9.324a9.844 9.844 0 00-9.908 0c-.69.365-1.524.062-1.865-.676-.34-.739-.058-1.633.631-1.998A13.049 13.049 0 0123.963 29a13.23 13.23 0 016.197 1.64c.471.218.792.696.835 1.244a1.523 1.523 0 01-.63 1.376c-.43.3-.98.32-1.43.054l-.018.01z"/></svg>