<svg xmlns="http://www.w3.org/2000/svg" width="24" height="24" fill="currentColor" role="img" viewBox="0 0 48 48"><path fill-rule="evenodd" d="M24 7c9.384.01 16.99 7.616 17 17 0 9.389-7.611 17-17 17S7 33.389 7 24 14.611 7 24 7zm0 31c7.728-.01 13.99-6.272 14-14 0-7.732-6.268-14-14-14s-14 6.268-14 14 6.268 14 14 14zm-4.5-14a1.5 1.5 0 01-1.5-1.5v-3a1.5 1.5 0 013 0v3a1.5 1.5 0 01-1.5 1.5zm11.456 3.064c.774.237 1.213 1.073.982 1.866-1.04 3.57-4.248 6.065-7.937 6.07-3.69 0-6.903-2.496-7.94-6.071-.23-.794.21-1.63.984-1.866.774-.236 1.589.216 1.819 1.01.67 2.312 2.75 3.928 5.135 3.928 2.388-.003 4.465-1.62 5.138-3.93.232-.793 1.045-1.244 1.82-1.007zM28.5 18a1.5 1.5 0 011.5 1.5v3a1.5 1.5 0 01-3 0v-3a1.5 1.5 0 011.5-1.5z"/></svg>