<svg xmlns="http://www.w3.org/2000/svg" width="24" height="24" fill="currentColor" role="img" viewBox="0 0 48 48"><path d="M31.666 5c.11.006.22.025.327.055l.157.055.134.064a1.5 1.5 0 01.246.166l.11.1 11 11v.05c.074.089.138.186.19.29.15.26.215.557.19.852l-.02.148-.05 14.48a1.47 1.47 0 01-.286 1.18l-.104.12-11 11a1.47 1.47 0 01-1.134.41l-.156-.02H16.78a1.47 1.47 0 01-1.171-.287l-.119-.103-11-11a1.47 1.47 0 01-.411-1.143l.021-.157V17.74a1.46 1.46 0 01.16-1 1.49 1.49 0 01.125-.205l.075-.095 11-11a1.5 1.5 0 01.356-.266l.134-.064.133-.047a1.49 1.49 0 01.276-.055L16.5 5h15.166zm-.786 3H17.12L7 18.12v13.8L17.08 42h13.84L41 31.92v-13.8L30.88 8zM24 33a1.5 1.5 0 110 3 1.5 1.5 0 010-3zm0-19a1.5 1.5 0 011.5 1.5v14a1.5 1.5 0 01-3 0v-14A1.5 1.5 0 0124 14z"/></svg>