<svg xmlns="http://www.w3.org/2000/svg" width="24" height="24" fill="currentColor" role="img" viewBox="0 0 48 48"><path d="M27.5 11a12.965 12.965 0 017.224 2.19 1.5 1.5 0 01-1.67 2.493A9.965 9.965 0 0027.5 14a10 10 0 00-8.932 5.5h12.064c.756 0 1.369.672 1.369 1.5s-.613 1.5-1.369 1.5h-13.02a10.08 10.08 0 000 3.001L28.66 25.5c.745 0 1.35.672 1.35 1.5s-.605 1.5-1.35 1.5H18.568A10 10 0 0027.5 34a9.965 9.965 0 005.555-1.683 1.5 1.5 0 011.669 2.493A12.965 12.965 0 0127.5 37c-5.597 0-10.369-3.538-12.2-8.5h-1.94c-.746 0-1.35-.672-1.35-1.5s.604-1.5 1.35-1.5h1.226a13.138 13.138 0 010-3h-1.217C12.613 22.5 12 21.828 12 21s.613-1.5 1.369-1.5h1.93C17.132 14.538 21.903 11 27.5 11z"/></svg>