<svg xmlns="http://www.w3.org/2000/svg" width="24" height="24" fill="currentColor" role="img" viewBox="0 0 48 48"><path d="M7.81 34.5h.2a13 13 0 012.81-.22L8.55 23.32l14-2.94v19a6.41 6.41 0 003-.24V20.38l14 2.94-2.37 10.89a15.32 15.32 0 012.79.34l.2.05L43 21l-5-1v-8a4.09 4.09 0 00-.14-1A4 4 0 0035 8.14 4.09 4.09 0 0034 8h-8.5V5.5a1.5 1.5 0 00-3 0V8H14a4.09 4.09 0 00-1 .14A4 4 0 0010.14 11a4.09 4.09 0 00-.14 1v8l-5 1zM13 15.86V12a1 1 0 011-1h20a1 1 0 011 1v7.32L24 17l-11 2.32z"/><path d="M45.3 38.13a19.42 19.42 0 00-5.13-2.05L40 36a15.32 15.32 0 00-2.79-.34h-.2a11.1 11.1 0 00-7.44 2.58c-.53.44-1 .82-1.54 1.16a9.79 9.79 0 01-2.5 1.23 6.41 6.41 0 01-3 .24A8.89 8.89 0 0119 39.41c-.5-.34-1-.72-1.54-1.16A10.7 10.7 0 0011 35.72h-.21a13 13 0 00-2.79.22h-.2a14.42 14.42 0 00-5.18 2.21 1.5 1.5 0 001.74 2.44 11.2 11.2 0 012.38-1.22 10.55 10.55 0 011.87-.54 8.59 8.59 0 013.05-.09 7.49 7.49 0 012.06.63 8 8 0 011.81 1.15 18.6 18.6 0 002.75 1.92 10.88 10.88 0 004.21 1.46 8.39 8.39 0 001 .06 9.09 9.09 0 002-.23 11.79 11.79 0 003.22-1.29 19.07 19.07 0 002.74-1.92 7.74 7.74 0 011.87-1.15 8.38 8.38 0 013-.69 11.33 11.33 0 013 .28 11.76 11.76 0 011.48.41 15.62 15.62 0 012.88 1.27 1.5 1.5 0 001.59-2.55z"/></svg>