<svg xmlns="http://www.w3.org/2000/svg" width="24" height="24" fill="currentColor" role="img" viewBox="0 0 48 48"><path d="M43.86 6.12s0-.09.05-.14a1.46 1.46 0 000-.14v-.13a1.47 1.47 0 000-.16v-.09a1.51 1.51 0 000-.15 1.48 1.48 0 000-.14v-.13l-.06-.14-.07-.12-.09-.13-.09-.1-.12-.12-.06-.06-.15-.09-.11-.06-.16-.14h-.13L42.7 4H5.16L5 4.08l-.15.06-.11.06-.15.09-.06.06-.12.12-.09.1-.09.13-.07.12L4.1 5v.27a1.51 1.51 0 000 .16v.09c0 .03 0 0 0 0a1.53 1.53 0 000 .16v.13a1.48 1.48 0 000 .14s0 .09.05.14l.07.12.08.13L18.5 24.9V42.56a1.5 1.5 0 000 .21 1.49 1.49 0 002.65.61l8-10.42a1.48 1.48 0 00.28-.67 1.51 1.51 0 000-.17v-7.21l14.26-18.5.08-.14zM26.81 23.48a1.49 1.49 0 00-.19.34 1.49 1.49 0 00-.07.21v7.48l-5 6.52V24.42a1.48 1.48 0 00-.07-.42 1.82 1.82 0 00-.25-.51L8.54 7h30.92z"/></svg>