<svg xmlns="http://www.w3.org/2000/svg" width="24" height="24" fill="currentColor" role="img" viewBox="0 0 48 48"><path d="M26 36v7h2.504c.826 0 1.496.666 1.496 1.5 0 .828-.68 1.5-1.496 1.5h-9.008A1.494 1.494 0 0118 44.5c0-.828.68-1.5 1.496-1.5H22v-7h-9.009A2.997 2.997 0 0110 32.992V9.008A3.001 3.001 0 0112.991 6H22V4.005a2 2 0 114 0V6h9.009A2.997 2.997 0 0138 9.008v23.984A3.001 3.001 0 0135.009 36H26zm9-26.992C35 9.002 12.991 9 12.991 9c.01 0 .009 23.992.009 23.992 0 .006 22.009.008 22.009.008C35.002 33 35 9.008 35 9.008zm-19 7.49c0-.827.667-1.498 1.505-1.498h12.99c.831 0 1.505.665 1.505 1.499V19.5c0 .83-.667 1.5-1.505 1.5h-12.99A1.498 1.498 0 0116 19.501V16.5z"/></svg>