<svg xmlns="http://www.w3.org/2000/svg" width="24" height="24" fill="currentColor" role="img" viewBox="0 0 48 48"><path d="M41.56 6.44a1.5 1.5 0 00-2.12 0L29 16.88V11.5a1.5 1.5 0 00-3 0v9a1.49 1.49 0 00.11.56 1.5 1.5 0 00.82.82 1.49 1.49 0 00.55.11h9a1.5 1.5 0 000-3h-5.36L41.56 8.56a1.5 1.5 0 000-2.12zM22 27.5a1.49 1.49 0 00-.11-.55 1.5 1.5 0 00-.8-.81 1.49 1.49 0 00-.59-.14h-9a1.5 1.5 0 000 3h5.38L6.44 39.44a1.5 1.5 0 002.12 2.12L19 31.12v5.38a1.5 1.5 0 001.5 1.5 1.5 1.5 0 001.5-1.5v-9z"/></svg>