<svg xmlns="http://www.w3.org/2000/svg" width="24" height="24" fill="currentColor" role="img" viewBox="0 0 48 48"><path d="M43.7 20.46L24.86 7.27a1 1 0 00-.23-.13l-.21-.07h-.74l-.21.07a1 1 0 00-.23.13L4.3 20.46A1.5 1.5 0 106 22.92l18-12.59 18 12.59a1.5 1.5 0 101.72-2.46z"/><path d="M37 38h-2V22.5a1.4 1.4 0 00-.12-.58A1.5 1.5 0 0033.5 21h-19a1.5 1.5 0 00-1.5 1.5V38h-2V20.44l-3 2.1v17A1.5 1.5 0 009.5 41h5a1.5 1.5 0 001.5-1.5V36h16v3.5a1.5 1.5 0 001.5 1.5h5a1.5 1.5 0 001.5-1.5v-17l-3-2.1zM16 24h16v3H16zm0 9v-3h16v3z"/></svg>