<svg xmlns="http://www.w3.org/2000/svg" viewBox="0 0 48 48"><path d="M43.33 29.08v-.11a1.49 1.49 0 0 0 0-.19v-.07a1.49 1.49 0 0 0-.06-.21 1.51 1.51 0 0 0-.11-.22 1.5 1.5 0 0 0-.16-.2 1.48 1.48 0 0 0-.21-.18 1.48 1.48 0 0 0-.25-.14A4 4 0 0 1 40 24a1.49 1.49 0 0 0 0-.22 4 4 0 0 1 2.37-3.45 1.48 1.48 0 0 0 .25-.14 1.49 1.49 0 0 0 .21-.18 1.49 1.49 0 0 0 .16-.2 1.51 1.51 0 0 0 .11-.22 1.49 1.49 0 0 0 .06-.21v-.07a1.49 1.49 0 0 0 0-.19v-.21a1.48 1.48 0 0 0-.05-.39 20 20 0 0 0-1.76-4.21l.02-.31-.11-.13-.08-.07-.18-.09h-.07l-.18-.1h-.07l-.2-.07h-.59l-.26.07a4 4 0 0 1-4.28-.9s-.08 0-.11-.08a4 4 0 0 1-.81-4.18 1.48 1.48 0 0 0 .08-.27 1.48 1.48 0 0 0 0-.27 1.49 1.49 0 0 0 0-.25 1.51 1.51 0 0 0-.08-.23 1.5 1.5 0 0 0-.15-.43v-.06l-.12-.15-.16-.05-.13-.1-.12-.08a19.91 19.91 0 0 0-4.21-1.76h-.8l-.2.06h-.05l-.21.1-.28.14a1.48 1.48 0 0 0-.18.21 1.48 1.48 0 0 0-.14.25A4 4 0 0 1 24.21 8H24a4 4 0 0 1-3.66-2.39 1.48 1.48 0 0 0-.14-.26 1.48 1.48 0 0 0-.2-.27l-.2-.15-.2-.1h-.06l-.24-.13h-.69a19.93 19.93 0 0 0-4.22 1.74 1.49 1.49 0 0 0-.32.24l-.07.07-.08.08-.17.17v.06a1.5 1.5 0 0 0-.11.19 1.49 1.49 0 0 0-.08.23 1.49 1.49 0 0 0 0 .26 1.49 1.49 0 0 0 0 .27 1.48 1.48 0 0 0 .08.28 4 4 0 0 1-.81 4.18s-.08 0-.11.08a4 4 0 0 1-4.28.9l-.28-.08h-.68l-.21.07H7.2l-.17.1-.08.05-.13.11-.09.09-.1.21-.09.13a19.91 19.91 0 0 0-1.76 4.21 1.48 1.48 0 0 0 0 .19v.12a1.5 1.5 0 0 0 0 .16v.11a1.48 1.48 0 0 0 0 .19v.07a1.5 1.5 0 0 0 .06.21 1.51 1.51 0 0 0 .11.22 1.49 1.49 0 0 0 .16.2 1.48 1.48 0 0 0 .21.18 1.49 1.49 0 0 0 .25.14 4 4 0 0 1 2.37 3.45 1.49 1.49 0 0 0 0 .22 4 4 0 0 1-2.39 3.66 1.48 1.48 0 0 0-.25.14 1.49 1.49 0 0 0-.21.18H5a1.49 1.49 0 0 0-.16.21 1.5 1.5 0 0 0-.11.22 1.49 1.49 0 0 0-.06.22v.07a1.47 1.47 0 0 0 0 .19v.11a1.49 1.49 0 0 0 0 .16v.14a19.93 19.93 0 0 0 1.74 4.22 1.49 1.49 0 0 0 .27.35l.06.07.06.05a1.49 1.49 0 0 0 .21.16l.12.07.2.08h.13a1.5 1.5 0 0 0 .31 0h.28l.19-.05h.06a4 4 0 0 1 4.18.81s0 .08.08.12a4 4 0 0 1 .9 4.28 1.48 1.48 0 0 0-.08.27 1.48 1.48 0 0 0 0 .27 1.49 1.49 0 0 0 0 .25 1.51 1.51 0 0 0 .08.23 1.5 1.5 0 0 0 .11.19v.06l.12.15.07.08.13.1.12.08.12.06.76.39.11.06a19.91 19.91 0 0 0 3.35 1.28 1.48 1.48 0 0 0 .35 0h.13a1.5 1.5 0 0 0 .31-.05 1.47 1.47 0 0 0 .21-.1l.19-.1a1.48 1.48 0 0 0 .19-.16l.14-.14a1.47 1.47 0 0 0 .14-.23s0-.06.06-.1A4 4 0 0 1 24 40.06h.21a4 4 0 0 1 3.45 2.37s0 .06.06.1a1.47 1.47 0 0 0 .14.23l.14.14a1.48 1.48 0 0 0 .19.16l.19.1a1.47 1.47 0 0 0 .21.1 1.5 1.5 0 0 0 .31.05h.27a1.5 1.5 0 0 0 .42-.06 19.86 19.86 0 0 0 4.21-1.76l.12-.08.13-.1.07-.08.13-.15v-.06a1.5 1.5 0 0 0 .11-.2 1.5 1.5 0 0 0 .08-.23 1.49 1.49 0 0 0 0-.26 1.49 1.49 0 0 0 0-.27 1.49 1.49 0 0 0-.08-.27 4 4 0 0 1 .9-4.28s0-.08.08-.12a4 4 0 0 1 4.18-.81h.06l.2.06h.28a1.49 1.49 0 0 0 .3 0h.15l.18-.07.13-.07.2-.15.07-.06a1.49 1.49 0 0 0 .22-.29l.07-.09a19.91 19.91 0 0 0 1.74-4.22 1.47 1.47 0 0 0 0-.15 1.51 1.51 0 0 0 .21-.46zm-10.12 4.13a1.43 1.43 0 0 0-.16.25 7 7 0 0 0-1.75 5.87 16.9 16.9 0 0 1-1.6.67 7 7 0 0 0-5.7-3 1.48 1.48 0 0 0-.42.07A7 7 0 0 0 18.31 40c-.3-.1-.6-.19-.89-.31l-.24-.11-.49-.24a7 7 0 0 0-1.74-5.91 1.43 1.43 0 0 0-.16-.25 7 7 0 0 0-6.13-1.93A16.9 16.9 0 0 1 8 29.67a7 7 0 0 0 2.91-5.25A1.48 1.48 0 0 0 11 24a7 7 0 0 0-3-5.7 16.9 16.9 0 0 1 .65-1.57 6.93 6.93 0 0 0 5.93-1.78 1.42 1.42 0 0 0 .21-.14 7 7 0 0 0 1.93-6.13 16.9 16.9 0 0 1 1.6-.68 7 7 0 0 0 5.25 2.91A1.48 1.48 0 0 0 24 11a7 7 0 0 0 5.7-3q.8.28 1.56.65a7 7 0 0 0 1.94 6.12 1.43 1.43 0 0 0 .21.14 6.92 6.92 0 0 0 5.91 1.79 16.83 16.83 0 0 1 .68 1.58A7 7 0 0 0 37 24a1.48 1.48 0 0 0 .07.43A7 7 0 0 0 40 29.68a16.88 16.88 0 0 1-.66 1.6 7 7 0 0 0-6.13 1.93z"/><path d="M24 17a7 7 0 1 0 7 7 7 7 0 0 0-7-7zm0 11a4 4 0 1 1 4-4 4 4 0 0 1-4 4z"/></svg>