<svg xmlns="http://www.w3.org/2000/svg" width="24" height="24" fill="currentColor" role="img" viewBox="0 0 48 48"><g fill="none" fill-rule="evenodd"><path fill="#4285F4" d="M41.28 24.41c0-1.277-.115-2.505-.327-3.683H24v6.963h9.687c-.417 2.25-1.685 4.156-3.592 5.433v4.516h5.818c3.403-3.134 5.367-7.748 5.367-13.23z"/><path fill="#34A853" d="M24 42c4.86 0 8.935-1.612 11.913-4.36l-5.818-4.517c-1.611 1.08-3.673 1.718-6.095 1.718-4.688 0-8.656-3.166-10.072-7.421H7.915v4.664C10.876 37.966 16.964 42 24 42z"/><path fill="#FBBC05" d="M13.928 27.42a10.82 10.82 0 01-.564-3.42c0-1.186.204-2.34.564-3.42v-4.664H7.915A17.993 17.993 0 006 24c0 2.905.695 5.654 1.915 8.084l6.013-4.664z"/><path fill="#EA4335" d="M24 13.16c2.643 0 5.015.907 6.88 2.69l5.164-5.162C32.926 7.784 28.852 6 24 6c-7.036 0-13.124 4.034-16.085 9.916l6.013 4.664c1.416-4.255 5.384-7.42 10.072-7.42z"/><path d="M6 6h36v36H6z"/></g></svg>