<svg xmlns="http://www.w3.org/2000/svg" viewBox="0 0 48 48"><path fill-rule="evenodd" d="M20.1 41.8a1.5 1.5 0 01-2.1-2.1l1.8-1.8 2 2.1-1.7 1.8zM17 36.5l-1 1a1.5 1.5 0 01-2.2-2l1.1-1.1.7-.8a1.5 1.5 0 012.1 2.2l-.7.7zm-1.4-7.1L14 31l-.5.5-.7.7-1 1v.1a1.5 1.5 0 01-2.2-2.1l1.8-1.8.5-.5 1.6-1.6 1.4-1.4a1.5 1.5 0 012.1 2l-1.4 1.5zm18.8 8.1l.8-1.2c.3-.6.4-1.1.5-1.7a4.5 4.5 0 003.8-2.6c.7-1.5.5-3.3-.6-4.7l6-6a1.5 1.5 0 00-2-2.1l-6 6-4-4-6.7-6.6-1.4-1.5.4-.3a1.5 1.5 0 00-2.2-2.1l-.3.3-.7.7-.7.7-.2.2-.5.5-.4.4-.3.3-1.8 1.8a1.5 1.5 0 01-2.1-2.1l1.8-1.8.4-.5h.1l.1-.2.6-.5L20.5 9l.7-.7.7-.7 1-1 .5-.4c.5-.2 1.2-.1 1.7.3L27.5 9l1.1 1c.6.6 1.5.6 2.1 0l1-1 .4-.4c.6-.5.6-1.5 0-2v-.1c-.6-.6-1.5-.6-2 0l-.4.4-2.5-2.5s-.4-.4 0 0a4.6 4.6 0 00-6.4 0l-1 1-1.5 1.5-1-1a1.5 1.5 0 00-2.1 2l1 1.1-2.4 2.5a4.5 4.5 0 001.2 7.2c1.7.8 3.7.5 5.1-.9l2.5-2.4 1.4 1.4 6.7 6.7 2.7 2.7 1.2 1.2 1.8 1.7.3.5c.2.5.1 1.2-.3 1.7a1.5 1.5 0 01-2.1 0l-1.8-1.8-1.2-1.2-2-2a1.5 1.5 0 10-2.1 2.1l2 2 1.2 1.2 1.7 1.8c.2.1.3.3.3.4.3.6.2 1.3-.3 1.7a1.5 1.5 0 01-2 0l-1.9-1.8-1.2-1.2-2-2a1.5 1.5 0 00-2 2.2l2 2 1.1 1.2 1.8 1.7.3.5c.2.5.2 1.2-.3 1.7-.5.4-1.2.5-1.7.2l-.4-.2L24 38l-1.2-1.2-1-1-.7-.8c0-.7-.2-1.4-.5-2.1l-.8-1.3-1.3-.8.6-.6.6-.8a4.5 4.5 0 00-7-5.6l-1.4 1.5-6.7-6.8a1.5 1.5 0 00-2.2 2.2l6.8 6.7L7.4 29a4.5 4.5 0 003 7.6 4.5 4.5 0 004.2 4.3 4.5 4.5 0 002.5 3.8c1.7.8 3.7.5 5.1-.9L24 42a4.5 4.5 0 007.3-3.3 4.5 4.5 0 003-1.3z" clip-rule="evenodd"/></svg>