<svg xmlns="http://www.w3.org/2000/svg" viewBox="0 0 48 48" role="img"><path d="M36.72 25.81A18.77 18.77 0 0039 17a7 7 0 00-13.41-2.81c-.06.14-.11.29-.17.44a1.49 1.49 0 01-2.82 0c-.05-.15-.11-.3-.17-.44A7 7 0 009 17a18.77 18.77 0 002.28 8.81A29.61 29.61 0 0024 37.91a29.61 29.61 0 0012.72-12.1z" opacity=".2"/><path d="M39 9.86A10.17 10.17 0 0032 7a9.9 9.9 0 00-6 2 10.68 10.68 0 00-1.14 1 9.52 9.52 0 00-.9 1 9.55 9.55 0 00-.95-1.08A10.71 10.71 0 0022 9a9.91 9.91 0 00-12 0 9.9 9.9 0 00-4 8c0 15 16 24 18 24s18-9 18-24a10 10 0 00-3-7.14zM11.28 25.81A18.77 18.77 0 019 17a7 7 0 0113.41-2.81c.06.14.11.29.17.44a1.49 1.49 0 002.82 0c.05-.15.11-.3.17-.44A7 7 0 0139 17a18.77 18.77 0 01-2.28 8.81A29.61 29.61 0 0124 37.91a29.61 29.61 0 01-12.72-12.1z" fill="#fff"/></svg>