<svg xmlns="http://www.w3.org/2000/svg" width="24" height="24" fill="currentColor" role="img" viewBox="0 0 48 48"><path fill-opacity=".4" d="M24 44.26a1.5 1.5 0 01-.55-.11l-.65-.25a32.13 32.13 0 01-8-5.15 38.24 38.24 0 01-9.12-11A28.26 28.26 0 013.43 22a24.69 24.69 0 01-.87-6.49A11.76 11.76 0 0120.23 5.35 12.12 12.12 0 0124 8.85a12.12 12.12 0 013.77-3.5 11.77 11.77 0 0117.67 10.19 25.21 25.21 0 01-.86 6.46 28.42 28.42 0 01-2.27 5.71 38.1 38.1 0 01-9.12 11 31.83 31.83 0 01-8 5.15l-.65.25a1.5 1.5 0 01-.54.15z"/><path fill="#fff" d="M24 44.26a1.5 1.5 0 01-.55-.11l-.65-.25a32.13 32.13 0 01-8-5.15 38.24 38.24 0 01-9.12-11A28.26 28.26 0 013.43 22a24.69 24.69 0 01-.87-6.49A11.76 11.76 0 0120.23 5.35 12.12 12.12 0 0124 8.85a12.12 12.12 0 013.77-3.5 11.77 11.77 0 0117.67 10.19 25.21 25.21 0 01-.86 6.46 28.42 28.42 0 01-2.27 5.71 38.1 38.1 0 01-9.12 11 31.83 31.83 0 01-8 5.15l-.65.25a1.5 1.5 0 01-.54.15zm-9.67-37.5a8.79 8.79 0 00-8.77 8.78 21.8 21.8 0 00.76 5.71 25.32 25.32 0 002 5.09 35 35 0 008.4 10.11 29.67 29.67 0 007.15 4.65h.22a29.67 29.67 0 007.15-4.65 34.83 34.83 0 008.39-10.11 25.22 25.22 0 002-5.1 21.79 21.79 0 00.76-5.7A8.75 8.75 0 0029.29 8a8.88 8.88 0 00-3.14 3.1c-.09.15-.18.3-.26.46l-.51 1.16a1.5 1.5 0 01-1.37.91 1.51 1.51 0 01-1.38-.9l-.51-1.16-.27-.47A8.88 8.88 0 0018.71 8a8.63 8.63 0 00-4.38-1.24z"/></svg>