<svg xmlns="http://www.w3.org/2000/svg" width="24" height="24" fill="currentColor" role="img" viewBox="0 0 48 48"><path d="M24 44.25a1.5 1.5 0 01-.55-.11l-.65-.25a32.13 32.13 0 01-8-5.15 38.1 38.1 0 01-9.12-11A28.26 28.26 0 013.43 22a24.69 24.69 0 01-.87-6.49A11.76 11.76 0 0120.23 5.34 12.12 12.12 0 0124 8.84a12 12 0 013.77-3.5 11.77 11.77 0 0117.67 10.19 24.8 24.8 0 01-.87 6.47 27.8 27.8 0 01-2.26 5.71 38 38 0 01-9.12 11 31.83 31.83 0 01-8 5.15l-.66.26a1.66 1.66 0 01-.53.13zm-.11-3.16h.22a29.67 29.67 0 007.15-4.65 35 35 0 008.39-10.11 25.22 25.22 0 002-5.1 21.79 21.79 0 00.76-5.7 8.75 8.75 0 00-13.13-7.59A8.93 8.93 0 0026.15 11c-.09.15-.18.3-.26.46l-.51 1.16a1.5 1.5 0 01-1.37.91 1.51 1.51 0 01-1.38-.9l-.51-1.16c-.09-.16-.17-.31-.27-.47a8.8 8.8 0 00-3.14-3.1 8.63 8.63 0 00-4.38-1.19 8.79 8.79 0 00-8.77 8.78 21.67 21.67 0 00.76 5.7 24.82 24.82 0 002 5.1 35 35 0 008.4 10.11 29.79 29.79 0 007.15 4.65z"/></svg>