<svg xmlns="http://www.w3.org/2000/svg" viewBox="0 0 48 48" role="img"><path d="M37.44 6.44a1.5 1.5 0 012.224 2.007l-.103.114-32 32a1.5 1.5 0 01-2.225-2.008l.103-.114 32-32zm-6.82 13.062a8 8 0 01-11.114 11.114l2.184-2.182a5 5 0 006.747-6.747l2.183-2.185zM24.003 16c1.667 0 3.215.51 4.496 1.382l-2.185 2.183a5 5 0 00-6.746 6.746l-2.183 2.185A8 8 0 0124.003 16zm12.488-2.37c3.056 1.788 5.522 3.914 7.227 5.597l.371.372.454.468.407.434.518.575.283.326a3.979 3.979 0 010 5.196l-.283.326-.518.575-.407.434-.454.468-.37.372-.405.393-.43.407-.694.63-.493.431c-.17.145-.342.291-.519.437l-.542.442C36.663 34.683 30.866 38 24.003 38c-3.552 0-6.82-.889-9.696-2.186l2.285-2.284c2.26.892 4.752 1.47 7.411 1.47 6.389 0 11.807-3.337 15.386-6.335l.5-.426.472-.419.447-.409.42-.397.393-.384.365-.366.172-.177.473-.498.406-.445.434-.496a.992.992 0 000-1.296l-.362-.415-.45-.496-.349-.37c-.06-.064-.124-.13-.188-.195l-.404-.41-.44-.431c-.228-.221-.47-.449-.725-.682l-.527-.471c-1.538-1.352-3.476-2.822-5.73-4.056l2.195-2.195zM24.003 10c3.551 0 6.817.888 9.692 2.184l-2.284 2.284C29.15 13.578 26.66 13 24.003 13c-6.236 0-11.548 3.18-15.127 6.12l-.511.429c-.084.07-.166.141-.247.212l-.473.419-.447.409-.42.397-.393.384-.365.366-.336.348-.308.327-.406.445-.435.496a.992.992 0 000 1.296l.232.267.42.47.33.355.367.384.404.41.44.43.232.224.493.458.526.471c1.538 1.351 3.476 2.822 5.728 4.055l-2.195 2.195c-3.055-1.786-5.52-3.911-7.224-5.594l-.371-.372-.454-.468-.406-.434-.358-.394-.444-.507a3.979 3.979 0 010-5.196l.283-.326.334-.373.382-.414.209-.222.454-.468.371-.372.616-.595.443-.412.469-.423.494-.431c.168-.145.341-.291.518-.437l.542-.442C11.343 13.317 17.14 10 24.003 10z"/></svg>