<svg xmlns="http://www.w3.org/2000/svg" width="24" height="24" fill="currentColor" role="img" viewBox="0 0 48 48"><path d="M36.233 14.743c.499.293.982.594 1.449.901a38.43 38.43 0 017.78 6.846 3.978 3.978 0 010 5.195 38.432 38.432 0 01-7.75 6.826 31.781 31.781 0 01-3 1.756c-3.178 1.631-6.895 2.821-10.998 2.821-3.537 0-6.787-.885-9.653-2.172l2.29-2.292c2.25.882 4.72 1.464 7.363 1.464 4.16 0 7.902-1.422 10.999-3.237a31.13 31.13 0 003-1.999 35.641 35.641 0 005.469-5.117.991.991 0 000-1.295 35.59 35.59 0 00-5.47-5.117 31.13 31.13 0 00-3.675-2.383l.676-.677zm-5.88 5.88a7.968 7.968 0 011.359 4.426l.002.04a7.97 7.97 0 01-.573 2.96 7.997 7.997 0 01-11.891 3.677l2.203-2.202a4.953 4.953 0 002.26.564c1.649 0 3.099-.809 4.01-2.039a4.958 4.958 0 00.99-2.96c0-.015-.003-.027-.003-.04a4.942 4.942 0 00-.56-2.223zM12.19 32.543a31.698 31.698 0 01-2.474-1.688 35.661 35.661 0 01-5.47-5.12.99.99 0 010-1.296 35.668 35.668 0 015.47-5.119 31.25 31.25 0 013-1.997c3.098-1.816 6.837-3.236 10.996-3.236 2.106 0 4.098.377 5.962.972l-2.719 2.72a7.958 7.958 0 00-3.243-.692 7.999 7.999 0 00-7.998 7.962l-.002.038a7.97 7.97 0 00.573 2.962l.118.28-4.213 4.213zm7.493-7.494l-.885.886a5.024 5.024 0 01-.086-.848c0-.012.004-.024.004-.038a4.998 4.998 0 014.996-4.962c.291 0 .571.038.848.087l-4.877 4.875zm1.243 3l3-3 3.401-3.401 2.126-2.125 3.258-3.26 1.706-1.705.531-.531 1.68-1.678 2.787-2.789c.401-.4.506-.97.358-1.479a1.466 1.466 0 00-.358-.641 1.5 1.5 0 00-2.12 0l-2.766 2.763-2.196 2.197-.31.31a25.305 25.305 0 00-1.93-.66c-1.997-.593-4.128-.963-6.38-.963-2.253 0-4.384.37-6.38.963-1.263.373-2.467.84-3.609 1.37a31.208 31.208 0 00-3.979 2.225 38.384 38.384 0 00-7.78 6.846 3.978 3.978 0 000 5.195 38.44 38.44 0 007.751 6.827c.1.067.207.13.308.196l-.308.307-4.242 4.244a1.5 1.5 0 000 2.12c.184.184.408.29.642.358.51.15 1.077.044 1.48-.358l2.12-2.122 2.994-2.992.006-.008 2.232-2.23 3.2-3.2 2.778-2.779z"/></svg>