<svg xmlns="http://www.w3.org/2000/svg" width="24" height="24" fill="currentColor" role="img" viewBox="0 0 48 48"><path d="M15.454 22.202c.017.093.028.187.028.285v14.51h17.037v-14.51c0-.087.012-.172.026-.256l2.974 3.303v12.962a1.5 1.5 0 01-1.5 1.5H13.982l-.144-.007a1.5 1.5 0 01-1.356-1.493V25.503zm25.343 3.195l3 3.33v7.76a1.5 1.5 0 01-1.5 1.5H37v-3h3.797v-9.59zm-33.594-.001v9.59H11v3H5.703a1.5 1.5 0 01-1.5-1.5v-7.758l3-3.332zm27.595-11.397c.09 0 .179.021.269.038.1.02.2.035.297.074.077.032.145.084.217.13.098.06.196.12.28.206l.048.036 6.82 7.574 1.04 1.157 2.846 3.16a1.5 1.5 0 11-2.229 2.007l-.588-.654-3-3.33-4.512-5.012-3.442-3.967.842-.935c.014-.016.034-.02.049-.036.084-.086.18-.146.279-.207.072-.045.14-.097.218-.129.095-.039.196-.055.297-.074.089-.017.178-.038.269-.038zm-21.595 0c.09 0 .179.022.269.039.1.018.202.034.297.074.077.03.145.083.218.128.097.062.195.122.279.208.015.014.034.02.048.035l.838.93-3.49 4.03-4.46 4.953-3 3.332-.587.653a1.5 1.5 0 01-2.23-2.007l2.845-3.16 1.042-1.157 6.82-7.574c.014-.015.033-.021.048-.035.084-.086.182-.146.279-.208.073-.045.14-.097.218-.128.095-.04.196-.056.297-.074.09-.017.178-.038.269-.038zm10.784-6c.097 0 .193.023.289.042.089.018.178.032.263.065.099.04.19.104.28.167.073.049.147.093.21.156.023.022.053.03.074.054l6.993 7.767 2.018 2.24L37 21.697l1.537 1.707a1.499 1.499 0 01-.111 2.118c-.402.363-.942.44-1.426.298-.256-.076-.501-.196-.692-.41l-.79-.874-2.973-3.304-.45-.498-2.017-2.242-6.091-6.765-6.078 6.75-2.018 2.242-.437.485-2.972 3.3-.788.876a1.465 1.465 0 01-.694.409c-.484.143-1.023.065-1.425-.298a1.499 1.499 0 01-.111-2.118L11 21.666l2.872-3.19 2.019-2.242 6.979-7.751c.02-.024.05-.032.073-.054.064-.063.138-.107.21-.156.09-.063.182-.127.28-.167.086-.033.175-.047.264-.065.097-.02.192-.041.29-.041z"/></svg>