<svg xmlns="http://www.w3.org/2000/svg" width="24" height="24" fill="currentColor" role="img" viewBox="0 0 48 48"><path d="M33 36H15V21.77l-3 3.33v12.4a1.5 1.5 0 001.5 1.5h21a1.5 1.5 0 001.5-1.5V25l-3-3.33z"/><path d="M39.05 25.22a1.5 1.5 0 00.11-2.12L36 19.56l-2.08-2.32-8.81-9.74s0-.05-.06-.08a1.42 1.42 0 00-.23-.13 1.47 1.47 0 00-.21-.13 1.44 1.44 0 00-.3-.07 1 1 0 00-.53 0 1.44 1.44 0 00-.3.07 1.47 1.47 0 00-.21.13 1.42 1.42 0 00-.23.13s0 .05-.06.08l-8.8 9.77L12 19.62 8.84 23.1a1.5 1.5 0 102.23 2l.9-1 3-3.33 9-10 9 10L36 24l1 1.07a1.5 1.5 0 002.12.11zM8.5 42H5v-3.5a1.5 1.5 0 00-3 0v5A1.5 1.5 0 003.5 45h5a1.5 1.5 0 100-3zm-5-31A1.5 1.5 0 005 9.5V6h3.5a1.5 1.5 0 000-3h-5A1.5 1.5 0 002 4.5v5A1.5 1.5 0 003.5 11zm41 26a1.5 1.5 0 00-1.5 1.5V42h-3.5a1.5 1.5 0 000 3h5a1.5 1.5 0 001.5-1.5v-5a1.5 1.5 0 00-1.5-1.5zm0-34h-5a1.5 1.5 0 000 3H43v3.5a1.5 1.5 0 003 0v-5A1.5 1.5 0 0044.5 3z"/></svg>