<svg xmlns="http://www.w3.org/2000/svg" width="24" height="24" fill="currentColor" role="img" viewBox="0 0 48 48"><path d="M24 7.61c5.34 0 6 0 8.08.12 5.42.25 8 2.82 8.2 8.2.1 2.11.11 2.74.11 8.08s0 6-.11 8.08c-.25 5.37-2.77 8-8.2 8.2-2.11.1-2.74.12-8.08.12s-6 0-8.08-.12c-5.43-.25-8-2.83-8.2-8.2C7.62 30 7.6 29.34 7.6 24s0-6 .12-8.08c.25-5.38 2.77-8 8.2-8.2 2.08-.09 2.74-.11 8.08-.11zM24 4c-5.43 0-6.11 0-8.24.12-7.27.33-11.31 4.36-11.64 11.63C4 17.89 4 18.57 4 24s0 6.11.12 8.25c.33 7.26 4.36 11.3 11.63 11.63 2.13.1 2.81.12 8.25.12s6.11 0 8.25-.12c7.26-.33 11.3-4.36 11.63-11.63.12-2.14.12-2.82.12-8.25s0-6.11-.12-8.24c-.33-7.26-4.36-11.3-11.63-11.64C30.11 4 29.43 4 24 4zm0 9.73A10.27 10.27 0 1034.27 24 10.27 10.27 0 0024 13.73zm0 16.94A6.67 6.67 0 1130.67 24 6.67 6.67 0 0124 30.67zm10.68-19.74a2.4 2.4 0 102.4 2.4 2.4 2.4 0 00-2.4-2.4z"/></svg>