<svg xmlns="http://www.w3.org/2000/svg" width="24" height="24" fill="currentColor" role="img" viewBox="0 0 48 48"><path d="M31.545 40.32c1.468-2.082 2.646-4.759 3.422-7.82h4.892a18.104 18.104 0 01-8.314 7.82zM8.14 32.5h4.892c.776 3.061 1.954 5.738 3.422 7.82A18.104 18.104 0 018.14 32.5zm8.314-24.82c-1.468 2.081-2.646 4.758-3.422 7.82H8.14a18.101 18.101 0 018.314-7.82zm23.404 7.82h-4.892c-.776-3.062-1.954-5.739-3.422-7.82a18.101 18.101 0 018.314 7.82zm-4.29 3h5.564c.558 1.735.867 3.581.867 5.5 0 1.918-.31 3.764-.867 5.5H35.57c.272-1.756.43-3.594.43-5.5 0-1.907-.158-3.744-.43-5.5zM24 6c2.99 0 6.213 3.655 7.87 9.5H16.13C17.789 9.655 21.012 6 24 6zM6 24c0-1.919.31-3.765.868-5.5h5.563A35.897 35.897 0 0012 24c0 1.906.158 3.744.43 5.5H6.867A17.937 17.937 0 016 24zm9.453 5.5A32.995 32.995 0 0115 24c0-1.952.163-3.792.452-5.5h17.096c.289 1.708.452 3.548.452 5.5 0 1.951-.163 3.792-.452 5.5H15.452zM24 42c-2.99 0-6.212-3.656-7.87-9.5h15.74C30.212 38.344 26.989 42 24 42zm0-39C12.402 3 3 12.402 3 24s9.402 21 21 21 21-9.402 21-21S35.598 3 24 3z"/></svg>