<svg xmlns="http://www.w3.org/2000/svg" width="24" height="24" fill="currentColor" role="img" viewBox="0 0 48 48"><path d="M17.88 30l-3 3L12 35.88V30H6V10h30v2a15.07 15.07 0 013 .3V8.5A1.5 1.5 0 0037.5 7h-33A1.5 1.5 0 003 8.5v23a1.49 1.49 0 000 .34v.1a1.48 1.48 0 00.09.22l.05.1a1.49 1.49 0 00.14.19l.06.08a1.49 1.49 0 00.6.38h.09a1.49 1.49 0 00.4.06H9v6.5a1.5 1.5 0 00.11.55 1.49 1.49 0 00.82.82 1.46 1.46 0 001.09 0 1.49 1.49 0 00.49-.33L19.12 33h3.14a14.87 14.87 0 01-1-3z"/><path d="M37 34a7 7 0 01-5.74-3h6.24a1.5 1.5 0 000-3h-7.42a6.3 6.3 0 010-2h7.42a1.5 1.5 0 000-3h-6.24a7 7 0 0110.32-1.28l.92-3.07A10 10 0 0027.84 23H26.5a1.5 1.5 0 000 3h.5c0 .33-.05.66-.05 1s0 .67.05 1h-.5a1.5 1.5 0 000 3h1.34a10 10 0 0014.66 4.34l-.92-3.07A7 7 0 0137 34z"/></svg>