<svg xmlns="http://www.w3.org/2000/svg" width="24" height="24" fill="currentColor" role="img" viewBox="0 0 48 48"><path d="M25.317 4.621l16.52 12.771a3.005 3.005 0 010 4.747L25.317 34.91a2.968 2.968 0 01-3.634 0L5.163 22.14a3.005 3.005 0 010-4.748l16.52-12.771a2.968 2.968 0 013.634 0zM40.02 19.766L23.5 6.995 6.98 19.765 23.5 32.538l16.52-12.771zm2.408 10.668a1.503 1.503 0 00.142-1.963l-.132-.155a1.485 1.485 0 00-1.954-.143L23.5 41.005 6.516 28.173l-.17-.11a1.485 1.485 0 00-1.916.408c-.495.66-.362 1.6.296 2.096L21.709 43.4l.233.16a2.968 2.968 0 003.349-.16l16.983-12.832.154-.133z"/></svg>