<svg xmlns="http://www.w3.org/2000/svg" width="24" height="24" fill="currentColor" role="img" viewBox="0 0 48 48"><rect width="10.52" height="3" x="22" y="35" rx="1.5" ry="1.5"/><rect width="22" height="3" x="22" y="27" rx="1.5" ry="1.5"/><rect width="10.52" height="3" x="22" y="18" rx="1.5" ry="1.5"/><rect width="22" height="3" x="22" y="10" rx="1.5" ry="1.5"/><path d="M17.5 9h-12A1.5 1.5 0 004 10.5v10A1.5 1.5 0 005.5 22h12a1.5 1.5 0 001.5-1.5v-10A1.5 1.5 0 0017.5 9zM16 19H7v-7h9zM17.5 26h-12A1.5 1.5 0 004 27.5v10A1.5 1.5 0 005.5 39h12a1.5 1.5 0 001.5-1.5v-10a1.5 1.5 0 00-1.5-1.5zM16 36H7v-7h9z"/></svg>