<svg xmlns="http://www.w3.org/2000/svg" viewBox="0 0 48 48" role="img"><rect x="22" y="35" width="10.52" height="3" rx="1.5" ry="1.5"/><rect x="22" y="27" width="22" height="3" rx="1.5" ry="1.5"/><rect x="22" y="18" width="10.52" height="3" rx="1.5" ry="1.5"/><rect x="22" y="10" width="22" height="3" rx="1.5" ry="1.5"/><path d="M17.5 9h-12A1.5 1.5 0 004 10.5v10A1.5 1.5 0 005.5 22h12a1.5 1.5 0 001.5-1.5v-10A1.5 1.5 0 0017.5 9zM16 19H7v-7h9zm1.5 7h-12A1.5 1.5 0 004 27.5v10A1.5 1.5 0 005.5 39h12a1.5 1.5 0 001.5-1.5v-10a1.5 1.5 0 00-1.5-1.5zM16 36H7v-7h9z"/></svg>