<svg xmlns="http://www.w3.org/2000/svg" viewBox="0 0 48 48" role="img"><path d="M12.66 33.92a12.43 12.43 0 011.87-.85c0-.06 0-.12.12-.13a.58.58 0 00.17 0l.28-.08h.09v-.09h-.12.12a.45.45 0 00.17 0 .93.93 0 01.26-.09.59.59 0 01-.26.09l-.14.08h0l.63-.17.12-.06c.14-.07.28-.16.41-.07h.12l.49-.07a3.42 3.42 0 01.29-.19l.13.09a.34.34 0 01.16-.15 2.91 2.91 0 00-.28-.13c-.13-.09-.2.28-.37.09.18.18.24-.18.37-.09a2.91 2.91 0 01.28.13.6.6 0 01.53 0 .53.53 0 01-.53 0 .34.34 0 00-.16.15l-.13-.09a3.42 3.42 0 00-.29.19c.32 0 .64-.11 1-.13 2.12-.12 4.17-.3 6.1.59a6.64 6.64 0 012.52 2 14.07 14.07 0 013 5.58 12.74 12.74 0 001.59 3.11.85.85 0 001.48-.32c.32-1-.34-1.22-.55-2.71.19 1-.8-.39-.7-1.47.17-1.59-1.37-3-2.29-4.54a9.14 9.14 0 00-1-1.13c-1.79-2.34-5.07-3.13-7.9-2.94a6.61 6.61 0 00-2 .48c-.46.07-1 .06-1.34.15a4.46 4.46 0 00-1.5.58 8.51 8.51 0 011.47-.53c.4-.1-.22.34-.46.46s-.34-.14-.43 0a3.31 3.31 0 00-.66.38c-.09.08-.15-.14-.2-.1-.33.16-.49.51-.72.55s-.59 0-.74 0-2.77 1.72-2.77 1.72a17.58 17.58 0 001.77-.29z" fill="currentColor" stroke="currentColor"/><path d="M15.33 32.77l-.13.06.53-.14c-.11-.08-.25 0-.4.08z" fill="#f9a51a"/><path d="M30.41 34.11a10.64 10.64 0 01-.54-2.18c-.06 0-.14-.07-.12-.15a.58.58 0 00.07-.19v-.41h0c0-.05-.08 0-.12 0l-.08.13s0-.09.08-.13a.48.48 0 000-.18.69.69 0 01-.06-.29.7.7 0 01.06.29l.07.17h0a4.35 4.35 0 01-.08-.72v-.15c0-.04-.11-.34 0-.47v-.13h0v-.6a3 3 0 01-.19-.34l.13-.15a.32.32 0 01-.15-.18c-.08.11-.16.22-.21.31s.3.23 0 .42c.25-.19-.18-.27 0-.42s.13-.2.21-.31a.73.73 0 01.1-.6c.13.21 0 .41-.1.6a.32.32 0 00.15.18l-.13.15a3 3 0 00.19.34V28a33.78 33.78 0 01.6-7.15 18.31 18.31 0 011.43-4c1.27-2.5 2.32-4.87 5-7.07a31.89 31.89 0 013.56-3c1.14-1-.17-1.21-.32-1.18-1.58.13-2.12.86-4.22 2.17 1.37-.92-.34.92-1.75 1.8-2.2 1.27-3 3.67-4.08 5.57a11.56 11.56 0 00-.72 1.59c-1.47 3-1.42 5.82-1.53 8.87a7.63 7.63 0 00.45 2.12c.08.48 0 1 0 1.42a6.17 6.17 0 00.37 1.62c-.1-.56-.22-1-.31-1.59-.05-.42.38.23.48.5.07.11-.22.35-.14.46a2.64 2.64 0 00.29.76c.09.11-.19.15-.15.2.14.36.56.57.53.83s0 .37 0 .54a1.17 1.17 0 000 .31l.11.19a.87.87 0 01.27-.16 2.79 2.79 0 000 .35 2.79 2.79 0 010-.35.87.87 0 00-.27.16c.31.44.63 1 .9 1.44h0a1.57 1.57 0 01-.11-.95c0 .15-.1.15-.17 0l.1-.15a.84.84 0 01.2.8l.14.14c0 .09-.1.12-.17.15l.08.17a2.25 2.25 0 00.15-.45z" fill="currentColor" stroke="currentColor" stroke-width="2.04"/><path d="M29.65 31l.05.14a4 4 0 01-.06-.6c-.12.13-.06.29.01.46z" fill="#f9a51a"/><path class="cls-4" d="M7.32 37c1-.38 3.24-2.5 4.33-3.33.4-.34.71-.6 1-.77a6.86 6.86 0 01-1 .77l-1.08.93 1.66-1L13 33c1.16-1.07 2.24-2.14 3.38-3.21.42-.38 1.25-1.29 1.68-1.65-1.54 1.7-3.17 3.31-4.82 4.89l.15-.11q1.35-1.21 2.66-2.46c.14-.15.29-.29.45-.44l-.45.44c-.37.38-.71.78-1.11 1.21-.26.25-.6.5-.86.75a6.55 6.55 0 01-.7.51l-.4.36-.11.13h0c.58-.07 4.12-3 4.57-3.65.37-.47.53-1.07.93-1.56.14-.18.32-.28.39-.45s0-.12 0-.21c.28-.35.68-.62.79-1s1.08-.4 1-.51c-.28-.4-.08-.11.29-.56 0-.05 0-.34.1-.44.35-.34.3-.52.53-1 .28-.74.62-.77.69-1.51l.33-1.13c.41-.74.41-1.3 1-1.79 0-.79.72-1.61 1-2.38a4.79 4.79 0 011-1.62 1.79 1.79 0 01.22-.42c.1-.09 0-.41.11-.59l.11.08.13-.24c0-.06.07 0 .1 0a10.1 10.1 0 00.25-2.16 2.68 2.68 0 00-1.44.09 4.43 4.43 0 01-.61 0 19.84 19.84 0 00-1.13 2.46c0 .09.06.46.16.54-.29.44-.88 1.4-.43 1.51-.16.38 0 .52-.12.92s-.42 1.21-.69 1.86c-.13.36-.3.7-.45 1l-.18.37c-1.24 2.54-2.67 4.06-4.23 6.35C14 32.1 8.56 35.72 7.5 36.65z" fill="currentColor" stroke="currentColor" stroke-width="2.04"/><path d="M39.16 4a16.86 16.86 0 00-2.53.43l-.57.11a3.08 3.08 0 01.57-.11l.65-.15h-.9l-.48.12c-.72.19-1.13.23-.09-.06h-.09l-1.65.43 1.24-.38a3.14 3.14 0 01.4-.06l.29.01h.07a11.91 11.91 0 00-2.7.85c-.26.11-.46 0-.73.09-.1 0-.2 0-.26.1s0 0-.06.08c-.19.08-1.23.62-1.29.64a1.47 1.47 0 00-.6.2c-.28.25-.43.18-.62.47l-.39.4c-.33.22-.45.45-.8.53-.19.32-.65.51-.92.78a2.26 2.26 0 01-.77.46c-.08.05-.12.11-.19.13s-.1.17-.17.22v-.06l-.11.07s-1.45.47-1.19 1.13a3.17 3.17 0 001.64.26c.4-.13.83-.85.86-.92a62.44 62.44 0 015.24-3.91A21.56 21.56 0 0139 4.14z" fill="currentColor"/></svg>