<svg xmlns="http://www.w3.org/2000/svg" width="24" height="24" fill="currentColor" role="img" viewBox="0 0 48 48"><path d="M40.928 5.423c.53.452.384 1.117-.355 1.762a31.797 31.797 0 00-3.536 2.981c-1.768 1.452-2.739 2.776-4.055 5.303l-.814 1.603a17.79 17.79 0 00-1.387 3.872 33.295 33.295 0 00-.6 6.344l.009.712v2.013l-.041.047.03.15.011.09v.136l.012.214.025.222.03.046.034.078.022.087.007.097-.005.32.05.362c.059.425.145.846.256 1.26l.121.411.138.406.05.137-.032.141-.048.188-.026.078.11.183-.205.067-.355.781.326.45.32.463c.7 1.053 1.003 1.86.908 2.75-.031.337.09.797.282 1.153l.096.172c-.317-.198-.572.023-.635.22l-.006.022.973-.131.02.12c.053.283.124.522.225.777l.205.499.088.237c.123.396.124.768-.013 1.192a1.35 1.35 0 01-1.02.974 1.361 1.361 0 01-1.353-.496 13.257 13.257 0 01-1.662-3.264 13.62 13.62 0 00-2.914-5.407 6.143 6.143 0 00-2.333-1.851c-1.083-.5-2.035-.663-3.703-.639l-.552.014-.605.025-1.068.06-.144.018-.509.087-.134.014a.932.932 0 01-.105.002l-.561.075h-.274l-.032.017-.214.096-.29.077v.12h-.444l-.216.062-.331.119c-.62.222-1.22.495-1.795.816l-.138.052c-.428.092-.858.17-1.291.23l-.647.39-.015-.022-.364.31-.803.674-.594.479-.18.138-.333.248c-.423.305-.76.504-1.041.611l-1.219.463.776-1.509.115-.147a2.39 2.39 0 01.057-.047l.193-.155 1.47-1.135-.022.002.124-.082.33-.254.746-.587a47.19 47.19 0 003.16-2.75c1.444-1.38 2.674-2.769 3.649-4.168l.184-.267.385-.546c.134-.187.276-.381.43-.59l1.194-1.62c.875-1.214 1.45-2.136 2-3.264l.223-.456.22-.456c.066-.147.122-.286.175-.43l.178-.44.173-.45.155-.423.122-.357.045-.143a.696.696 0 00.025-.277l-.002-.181.008-.113-.028-.041c-.125-.225-.095-.535.027-.872l.044-.114a4.53 4.53 0 01.283-.557l.098-.161a1.714 1.714 0 01-.08-.393l-.006-.117.032-.177a20.34 20.34 0 011.159-2.522l.153-.282.32.022c.18.013.361.013.542 0l-.054.002.131-.04a3.18 3.18 0 011.501-.042l.399.085-.003.408a10.6 10.6 0 01-.262 2.267l-.089.389-.201-.001-.107.197-.02.115a.61.61 0 01-.119.24l-.055.084a1.29 1.29 0 00-.053.1l-.044.106-.105.17a4.288 4.288 0 00-.895 1.45 3.73 3.73 0 01-.07.177l-.08.177-.104.204-.446.815-.075.152c-.132.28-.195.5-.195.684v.235l-.18.15c-.222.184-.33.36-.489.762l-.057.145-.183.444-.055.112-.074.137-.294.982c-.034.353-.115.6-.267.856l-.082.13-.191.286-.053.09-.069.137-.075.18a2.894 2.894 0 00-.096.225l-.114.306a1.77 1.77 0 01-.417.607l.054-.057-.006.065-.002.257-.114.139-.087.098-.089.087.005.097a.527.527 0 01-.123.307l-.06.06a.623.623 0 01-.276.14l-.356.093-.153.046c-.052.015-.071.013-.057-.037-.084.292-.239.503-.525.796l-.218.222-.007.06-.023.09-.035.093c-.06.146-.143.253-.266.374l-.16.157-.101.126a3.834 3.834 0 00-.321.55l-.14.275-.137.253a2.78 2.78 0 01-.246.37l-.067.089a5.384 5.384 0 01-.402.433l.55-.043.182-.022.231-.089a7.114 7.114 0 011.543-.37l.319-.032c3.362-.226 6.58.848 8.279 3.078.384.367.736.766 1.083 1.235l-.019-.024-.301-.5-.141-.223-.25-.376-.11-.19-.064-.185a1.367 1.367 0 01-.004-.376l-.006-.125a2.51 2.51 0 01-.005-.31l.006-.071-.153-.17a1.836 1.836 0 01-.277-.378l-.061-.135.011-.005-.017-.038a.32.32 0 01-.016-.24l.032-.103-.182.051a6.549 6.549 0 01-.32-1.17l-.048-.309-.034-.317.004-.19.027-.536.004-.268-.007-.235c0-.01.001-.016.003-.019a8.13 8.13 0 01-.48-2.31l.063-1.866.038-.834.029-.485.033-.443.04-.416.047-.4.055-.4.03-.204c.228-1.444.62-2.747 1.224-3.975.208-.571.46-1.126.755-1.666l.155-.28.26-.49.54-1.056c1.032-1.988 1.902-3.117 3.295-3.921a10.62 10.62 0 001.725-1.397l.075-.078.127-.137.087-.101.038-.052c-.1.21-.03.58.34.632l.065.003-.479-.815 1.662-1.105.531-.34.196-.116c.028-.016.052-.03.074-.04.404-.211.796-.35 1.246-.432l.278-.043.172-.015c.273-.055.781.07 1.066.313zM40.17 3.78l.512-.447-2.086.225-.355.047c-.235.034-.467.072-.698.115l-.303.06h-.86l-.121.015-.039.009.049-.078-1.253.343c-.633.172-1.253.395-1.852.665l-.037.008h-.246a1.22 1.22 0 00-.298.034l-.021.005-.035.002c-.216.013-.374.069-.51.243l-.024.034-1.105.556.09-.013a1.97 1.97 0 00-.804.268l-.126.097A.786.786 0 0130 6l-.123.066a1.185 1.185 0 00-.267.174l-.077.075c-.05.054-.097.113-.141.181l-.297.29-.128.097-.246.209a.462.462 0 01-.212.12l-.21.048-.109.185a.448.448 0 01-.09.102l-.113.091-.205.145c-.212.146-.32.228-.436.343l-.126.103-.068.047-.082.05-.059.031-.085.045a1.794 1.794 0 01-.162.066l-.099.048-.058.039-.073.057-.015.005a.457.457 0 00-.22.173l-.021.033-.036.023.064-.022a4.044 4.044 0 00-.7.31c-.664.37-1.05.848-.801 1.48l.074.189.186.083a3.67 3.67 0 001.899.301l.1-.021.122-.05c.364-.176.73-.6.934-.939l.049-.088-.08.066a61.94 61.94 0 015.199-3.88 21.177 21.177 0 015.78-1.64l.148-.02.409-.358 2.092-.477H40.17z"/></svg>