<svg xmlns="http://www.w3.org/2000/svg" width="24" height="24" fill="currentColor" role="img" viewBox="0 0 48 48"><path fill="#005AD2" d="M10.626 35l5.452 5.342v-5.184H18V44h-.64l-5.439-5.368v5.21H10V35h.626zm10.546 0l2.342 5.357L25.842 35H28l-4.174 9h-.639L19 35h2.172zm8.44 0l3.888 4.781L37.387 35H38v9h-1.88v-4.714l-2.313 2.786h-.614l-2.312-2.786V44H29v-9h.613zm6.34-31C37.084 4 38 4.901 38 6.012v24.873C38 31.5 37.491 32 36.865 32h-6.24a1.125 1.125 0 01-1.135-1.115v-8.541c0-1.269 1.046-2.297 2.336-2.297h.233c2.11 0 3.823-1.682 3.823-3.758 0-2.077-1.712-3.759-3.823-3.759-2.11 0-3.822 1.682-3.822 3.759l.013 14.596c0 .616-.508 1.115-1.136 1.115h-6.229a1.125 1.125 0 01-1.135-1.115l.013-14.596c0-2.077-1.71-3.759-3.822-3.759-2.111 0-3.823 1.682-3.823 3.759 0 2.076 1.712 3.758 3.823 3.758h.233c1.29 0 2.336 1.028 2.336 2.297v8.54c0 .617-.508 1.116-1.135 1.116h-6.24A1.125 1.125 0 0110 30.885V6.012C10 4.902 10.917 4 12.047 4l8.415.01c1.647 0 2.982 1.313 2.982 2.931l-.151.049c-1.741.327-3.056 1.832-3.056 3.639 0 1.98 1.58 3.597 3.568 3.7l.195.004.195-.005c1.988-.102 3.568-1.72 3.568-3.7 0-1.806-1.316-3.311-3.056-3.638l-.152-.049c0-1.618 1.336-2.931 2.982-2.931L35.953 4z"/></svg>