<svg xmlns="http://www.w3.org/2000/svg" width="24" height="24" fill="currentColor" role="img" viewBox="0 0 48 48"><ellipse cx="24" cy="24.51" rx="6.65" ry="6.63"/><path d="M36 17.13a6.65 6.65 0 007.15-3.25A6.64 6.64 0 1036 17.13zM12 27v-9.1a5.72 5.72 0 015.72-5.71H27a10.16 10.16 0 011.16-6.51H15.7A10.4 10.4 0 005.3 16v12.34A10.18 10.18 0 0112 27zm24-6v10.45a5.72 5.72 0 01-5.72 5.71H21.1v.13a10.36 10.36 0 01-2.16 6.34H33a10.4 10.4 0 0010.37-10.39V19.16A10.23 10.23 0 0136 21zM12 30.8a6.64 6.64 0 00-6.7 2.56 6.64 6.64 0 1012 3.93v-.13A6.63 6.63 0 0012 30.8z"/></svg>