<svg xmlns="http://www.w3.org/2000/svg" viewBox="0 0 48 48" role="img"><path d="M15.46 41.57h-.03l-2.89-5.37H9.47v7.76h2.12v-5.67h.04l2.96 5.67h2.99V36.2h-2.12v5.37zm7.23.27h-.03l-1.68-5.64h-2.36l2.67 7.76h2.66l2.88-7.76h-2.24l-1.9 5.64zm12.3-5.64l-1.8 5.28h-.03l-1.7-5.28H27.8v7.76h2.22v-5.98h.02l1.99 5.98h2.17l2.08-5.98h.03v5.98h2.21V36.2h-3.53zm-6.53-3.97v-15.3a3.94 3.94 0 113.94 3.94h-.24a2.41 2.41 0 00-2.41 2.41v9a1.17 1.17 0 001.17 1.17h6.43a1.17 1.17 0 001.17-1.17V6.15A2.11 2.11 0 0036.4 4h-8.68a3.07 3.07 0 00-3.07 3.07l.16.05a3.88 3.88 0 11-1.46 0l.16-.05A3.07 3.07 0 0020.44 4h-8.69a2.11 2.11 0 00-2.11 2.15v26.08a1.17 1.17 0 001.17 1.17h6.43a1.17 1.17 0 001.17-1.17v-9A2.41 2.41 0 0016 20.87h-.24a3.94 3.94 0 113.94-3.94v15.3a1.17 1.17 0 001.17 1.17h6.42a1.17 1.17 0 001.17-1.17z"/></svg>