<svg xmlns="http://www.w3.org/2000/svg" width="24" height="24" fill="currentColor" role="img" viewBox="0 0 48 48"><path d="M10 38.067l7.706-11.848a1.5 1.5 0 012.46-.078l3.866 5.19 2.994-3.371a1.5 1.5 0 012.312.084L38 39.352V8H10v30.067zM11.67 41h23.813l-7.421-9.689-2.2 2.476 1.16 1.558a1.5 1.5 0 01-2.405 1.792l-5.57-7.477L11.67 41zM9.55 5h28.9C39.858 5 41 6.587 41 8.545v31.91C41 42.413 39.858 44 38.45 44H9.55C8.142 44 7 42.413 7 40.455V8.545C7 6.587 8.142 5 9.55 5zm4.95 8h19a1.5 1.5 0 010 3h-19a1.5 1.5 0 010-3zm0 6h5a1.5 1.5 0 010 3h-5a1.5 1.5 0 010-3zM33 26a3 3 0 110-6 3 3 0 010 6z"/></svg>