<svg xmlns="http://www.w3.org/2000/svg" width="24" height="24" fill="currentColor" role="img" viewBox="0 0 48 48"><path d="M35.93 31.07c-.46-3.33-3.34-6-7.13-6.83h-.19a1.5 1.5 0 00-1 .26 1.49 1.49 0 00-.55.71l-.1.27-.59 1.52L24 33.52 21.63 27l-.56-1.54-.1-.27a1.49 1.49 0 00-.55-.71 1.5 1.5 0 00-1-.26h-.19c-3.78.8-6.67 3.5-7.13 6.83a1.48 1.48 0 00-.07.43v8a1.5 1.5 0 003 0V32c0-2 1.48-3.66 3.62-4.48l4 10.9v.06l.06.13.08.13.09.12.09.1.13.11.09.07.16.09H24.71l.16-.09.09-.07.13-.11.09-.1.09-.12.08-.13.06-.13v-.06l4-10.9C31.52 28.34 33 30 33 32v7.5a1.5 1.5 0 003 0v-8a1.48 1.48 0 00-.07-.43zM24 22a8 8 0 10-8-8 8 8 0 008 8zm0-13a5 5 0 11-5 5 5 5 0 015-5z"/></svg>