<svg xmlns="http://www.w3.org/2000/svg" width="24" height="24" fill="currentColor" role="img" viewBox="0 0 48 48"><path d="M31.5 7.75a1.49 1.49 0 00-.77.22L9.21 18H4.5A1.5 1.5 0 003 19.5v9A1.5 1.5 0 004.5 30h4.71l1.29.6a6 6 0 0010.87 5.07l9.41 4.39a1.48 1.48 0 00.7.18 1.5 1.5 0 001.5-1.5V9.25a1.5 1.5 0 00-1.48-1.5zM16 36a3 3 0 01-2.78-4.13l5.41 2.53A3 3 0 0116 36zm2-5.2l-1.6-.8-4-1.85-2.25-1a1.49 1.49 0 00-.61-.15H6v-6h3.54a1.49 1.49 0 00.64-.14L30 11.62v24.76l-8-3.74zM41.37 31.51H37.5a1.5 1.5 0 000 3h3.87a1.5 1.5 0 000-3zM37.5 16.51h3.87a1.5 1.5 0 000-3H37.5a1.5 1.5 0 000 3zM43.5 22.51h-6a1.5 1.5 0 100 3h6a1.5 1.5 0 100-3z"/></svg>