<svg xmlns="http://www.w3.org/2000/svg" width="24" height="24" fill="currentColor" role="img" viewBox="0 0 48 48"><path d="M37 9.5a1.5 1.5 0 00-.92-1.38A1.4 1.4 0 0035.5 8h-23a1.51 1.51 0 00-1.06.44A1.53 1.53 0 0011 9.5v15a1.5 1.5 0 001.5 1.5h23a1.5 1.5 0 001.5-1.5zM14 11h20v12H14z"/><path d="M41.11 5.86A6 6 0 0036 3H12a6 6 0 00-6 6v23.1a5.9 5.9 0 00.89 3 6 6 0 001.44 1.61A5.92 5.92 0 0012 38h24a6 6 0 006-6V9a6 6 0 00-.89-3.14zM39 14.19V32a3 3 0 01-3 3H12a3 3 0 01-3-3V9a3 3 0 013-3h24a3 3 0 013 3z"/><path d="M16.5 29h-3a1.5 1.5 0 000 3h3a1.5 1.5 0 000-3zM34.5 29h-3a1.5 1.5 0 000 3h3a1.5 1.5 0 000-3zM31.31 39l2.8 6h3.31l-2.8-6h-3.31zM10.58 45h3.31l2.8-6h-3.31l-2.8 6z"/></svg>