<svg xmlns="http://www.w3.org/2000/svg" width="24" height="24" fill="currentColor" role="img" viewBox="0 0 48 48"><path fill-rule="evenodd" d="M42.052 24.6a1.501 1.501 0 01-2.23 2.01l-2.107-2.34-3-3.333-11-12.216-11 12.217-3 3.332-2.1 2.334a1.501 1.501 0 01-2.23-2.008L22.6 5.481c.028-.032.068-.044.098-.074.04-.037.085-.061.125-.093.116-.088.238-.168.368-.218.06-.022.123-.031.186-.046.118-.028.238-.05.36-.05.084.001.164.019.244.034.1.018.2.036.296.074.098.04.19.103.28.166.07.047.14.09.2.15.026.023.06.034.083.06L42.052 24.6zm-7.336-1.663l3 3.332v15.327a1.5 1.5 0 01-1.497 1.5H11.216a1.5 1.5 0 01-1.5-1.5V26.27l3-3.332v17.158h22V22.937zm-9.77-2.841c1.394 0 2.69.412 3.772 1.116l-.63 2.07a4.82 4.82 0 00-3.142-1.161 4.818 4.818 0 00-3.933 2.025h4.276c.565 0 1.028.456 1.028 1.012 0 .557-.463 1.013-1.028 1.013h-5.087c-.033.22-.055.445-.055.675 0 .23.022.454.055.675h5.087c.565 0 1.028.456 1.028 1.012 0 .557-.463 1.013-1.028 1.013h-4.276a4.819 4.819 0 003.933 2.025c1.202 0 2.299-.44 3.142-1.162l.631 2.07a6.888 6.888 0 01-3.773 1.117 6.86 6.86 0 01-6.282-4.05h-.917a1.023 1.023 0 01-1.028-1.012c0-.557.462-1.013 1.028-1.013h.378a6.662 6.662 0 010-1.35h-.378a1.023 1.023 0 01-1.028-1.012c0-.557.462-1.013 1.028-1.013h.917a6.86 6.86 0 016.282-4.05z"/></svg>