<svg xmlns="http://www.w3.org/2000/svg" width="24" height="24" fill="currentColor" role="img" viewBox="0 0 48 48"><path d="M24 41.5a1.5 1.5 0 011.506-1.5h9.491V23l3 3.332V41.5a1.5 1.5 0 01-1.5 1.5h-10.99A1.502 1.502 0 0124 41.5zm18.05-16.9a1.5 1.5 0 01-2.229 2.008l-2.106-2.339-3-3.332L23.716 8.721l-11 12.218-3 3.332-2.101 2.333a1.5 1.5 0 01-2.23-2.008L22.597 5.48c.029-.031.068-.044.099-.073.038-.036.083-.06.124-.092a1.5 1.5 0 01.369-.218c.06-.022.122-.031.184-.046.12-.029.24-.052.361-.051.083.001.163.02.245.035.1.017.2.035.295.073.1.04.19.103.281.166.069.047.14.09.2.15.026.024.06.034.084.06L42.05 24.602zM10.06 33.94a1.5 1.5 0 00-2.12 2.12l5 5a1.5 1.5 0 002.12 0l10-10a1.5 1.5 0 00-2.12-2.12L14 37.878l-3.94-3.94z"/></svg>