<svg xmlns="http://www.w3.org/2000/svg" width="24" height="24" fill="currentColor" role="img" viewBox="0 0 48 48"><path d="M39 15.5a1.5 1.5 0 00-.7-1.26l-9.5-9.5A1.49 1.49 0 0027.52 4h-17A1.5 1.5 0 009 5.5v37a1.5 1.5 0 001.5 1.5h27a1.5 1.5 0 001.5-1.5zM12 7h14.82L36 16.18V41H12z"/><path d="M19.5 25.94a1.5 1.5 0 001.5-1.5v-3a1.5 1.5 0 00-3 0v3a1.5 1.5 0 001.5 1.5zM28.5 25.94a1.5 1.5 0 001.5-1.5v-3a1.5 1.5 0 00-3 0v3a1.5 1.5 0 001.5 1.5zM30.67 30.66a14.24 14.24 0 00-13.32 0 1.5 1.5 0 101.32 2.69 11.27 11.27 0 0110.68 0 1.5 1.5 0 101.33-2.69z"/></svg>