<svg xmlns="http://www.w3.org/2000/svg" width="24" height="24" fill="currentColor" role="img" viewBox="0 0 48 48"><path d="M35 40H13V22.84l-3 3.33V41.5a1.5 1.5 0 001.5 1.5h25a1.5 1.5 0 001.5-1.5V26.17l-3-3.33z"/><path d="M42.33 24.5L25.12 5.39 25 5.33a1.45 1.45 0 00-.2-.15 1.5 1.5 0 00-.24-.18 2.64 2.64 0 00-.56-.1 1.5 1.5 0 00-.36.05h-.18a1.5 1.5 0 00-.37.22l-.09.14s-.07 0-.1.07L5.67 24.5a1.5 1.5 0 102.23 2l2.1-2.33 3-3.33L24 8.62l11 12.22 3 3.33 2.11 2.34a1.5 1.5 0 002.23-2z"/><path d="M21 26.44v-3a1.5 1.5 0 00-3 0v3a1.5 1.5 0 003 0zM30 26.44v-3a1.5 1.5 0 00-3 0v3a1.5 1.5 0 003 0zM16.65 34.66a1.5 1.5 0 002 .69 11.27 11.27 0 0110.68 0 1.5 1.5 0 101.33-2.69 14.24 14.24 0 00-13.32 0 1.5 1.5 0 00-.69 2z"/></svg>