<svg xmlns="http://www.w3.org/2000/svg" width="24" height="24" fill="currentColor" role="img" viewBox="0 0 48 48"><path d="M42.5 7h-37A1.5 1.5 0 004 8.47v26.97A1.5 1.5 0 005.51 37h10.34l-3.41 3.41a1.41 1.41 0 00-.09.13 1.49 1.49 0 00-.18.27 1.45 1.45 0 00-.08.18 1.49 1.49 0 00-.09.45A1.5 1.5 0 0013.5 43h21a1.49 1.49 0 00.54-.1 1.5 1.5 0 00.49-.32 1.5 1.5 0 00.32-.49 1.49 1.49 0 00.15-.59 1.49 1.49 0 00-.11-.55 1.5 1.5 0 00-.33-.49L32.12 37H42.5a1.5 1.5 0 001.5-1.5v-27A1.5 1.5 0 0042.5 7zM7 34V10h34v24zm23.87 6H17.1l2.77-2.77A1.43 1.43 0 0020 37h7.86z"/><path d="M19.5 21.94a1.5 1.5 0 001.5-1.5v-3a1.5 1.5 0 10-3 0v3a1.5 1.5 0 001.5 1.5zM28.5 21.94a1.5 1.5 0 001.5-1.5v-3a1.5 1.5 0 10-3 0v3a1.5 1.5 0 001.5 1.5zM30.67 26.66a14.24 14.24 0 00-13.32 0 1.5 1.5 0 101.32 2.69 11.27 11.27 0 0110.68 0 1.5 1.5 0 101.33-2.69z"/></svg>