<svg xmlns="http://www.w3.org/2000/svg" width="24" height="24" fill="currentColor" role="img" viewBox="0 0 48 48"><path d="M42.5 9.5h-5v-5a1.5 1.5 0 10-3 0v5h-5a1.5 1.5 0 000 3h5v5a1.5 1.5 0 003 0v-5h5a1.5 1.5 0 000-3zM29 40h-2.76l-7.61-7.61-2.12 2.12L25 43h5.47A1.5 1.5 0 0032 41.5V29l-3-3.33zM11 25.77L8 29.1v12.4A1.5 1.5 0 009.47 43H15v-3h-4z"/><path d="M32 23.56l-2.08-2.32-8.81-9.74s0-.05-.06-.08a1.42 1.42 0 00-.23-.13 1.47 1.47 0 00-.21-.13 1.44 1.44 0 00-.3-.07 1 1 0 00-.53 0 1.44 1.44 0 00-.3.07 1.47 1.47 0 00-.21.13 1.42 1.42 0 00-.23.13s0 .05-.06.08l-8.8 9.77L8 23.62 4.84 27.1a1.5 1.5 0 102.23 2l.9-1 3-3.33 9-10 9 10L32 28l1 1.07a1.5 1.5 0 002.12.11 1.5 1.5 0 00.11-2.12z"/></svg>