<svg xmlns="http://www.w3.org/2000/svg" width="24" height="24" fill="currentColor" role="img" viewBox="0 0 48 48"><path d="M20.5 26h-15A1.5 1.5 0 004 27.48v13A1.5 1.5 0 005.5 42h15a1.5 1.5 0 001.5-1.5v-13a1.5 1.5 0 00-1.5-1.5zM7 29h12v10H7zM42.5 26h-15a1.5 1.5 0 00-1.5 1.5v13a1.5 1.5 0 001.5 1.5h15a1.5 1.5 0 001.5-1.5v-13a1.5 1.5 0 00-1.5-1.5zM29 29h12v10H29zM20.5 5.93h-15A1.5 1.5 0 004 7.44v13A1.5 1.5 0 005.5 22h15a1.5 1.5 0 001.5-1.5v-13a1.5 1.5 0 00-1.5-1.57zM7 8.94h12V19H7zM42.5 6h-15A1.5 1.5 0 0026 7.47v13A1.5 1.5 0 0027.5 22h15a1.5 1.5 0 001.5-1.5v-13A1.5 1.5 0 0042.5 6zM29 9h12v10H29z"/></svg>