<svg xmlns="http://www.w3.org/2000/svg" width="24" height="24" fill="currentColor" role="img" viewBox="0 0 48 48"><path d="M6.007 24.15a7.501 7.501 0 01.873-13.508 1.5 1.5 0 111.117 2.784 4.502 4.502 0 00-1.613 7.253C8.14 13.818 15.695 8.658 24.75 8.658a23.2 23.2 0 014.161.373c3.03-2.604 7.24-3.716 11.377-2.608l-1.872 6.988c1.383 1.183 2.53 2.545 3.384 4.04h.45A3.75 3.75 0 0146 21.2v7.573a3.75 3.75 0 01-3.75 3.75h-2.269a17.03 17.03 0 01-3.013 2.64l.574 2.14a3.75 3.75 0 01-2.652 4.594l-3.622.97a3.75 3.75 0 01-4.593-2.651l-.392-1.463c-.505.033-1.017.05-1.533.05-2.392 0-4.679-.36-6.782-1.016l-1.232 2.133a3.75 3.75 0 01-5.123 1.373l-3.247-1.875a3.75 3.75 0 01-1.373-5.123l1.646-2.85C7.046 29.3 6.097 26.812 6.007 24.15zm24.86-12.844l-1.086.932-1.407-.256a20.223 20.223 0 00-3.624-.324C15.925 11.658 9 17.225 9 23.731c0 2.094.704 4.117 2.047 5.926l1.175 1.582-2.63 4.557a.75.75 0 00.274 1.025l3.247 1.875a.75.75 0 001.025-.275l2.432-4.212 2.291.715a19.8 19.8 0 005.889.88c.449 0 .895-.015 1.339-.043l2.455-.16 1.03 3.84a.75.75 0 00.918.53L34.114 39a.75.75 0 00.53-.919l-1.12-4.182 1.739-1.202a14.033 14.033 0 002.483-2.174l.894-1h3.61a.75.75 0 00.75-.75v-7.572a.75.75 0 00-.75-.75h-2.192l-.863-1.513c-.673-1.179-1.595-2.277-2.73-3.248l-1.437-1.229 1.46-5.446a9.51 9.51 0 00-5.622 2.29zM34 22a2 2 0 110-4 2 2 0 010 4z"/></svg>