<svg xmlns="http://www.w3.org/2000/svg" width="24" height="24" fill="currentColor" role="img" viewBox="0 0 48 48"><path d="M24.94 4C14 4 8.52 11.83 8.52 18.35c0 4 1.5 7.47 4.71 8.78a.79.79 0 001.15-.58c.11-.4.36-1.42.47-1.84a1.12 1.12 0 00-.33-1.28 6.63 6.63 0 01-1.52-4.5 10.88 10.88 0 0111.31-11c6.17 0 9.56 3.77 9.56 8.8 0 6.62-2.93 12.22-7.28 12.22A3.56 3.56 0 0123 24.52c.69-2.91 2-6.05 2-8.15 0-1.88-1-3.45-3.1-3.45-2.46 0-4.43 2.54-4.43 5.95a8.84 8.84 0 00.73 3.64L15.23 35a25.77 25.77 0 00-.07 8.73.31.31 0 00.55.13 24.52 24.52 0 004.15-7.52c.28-1 1.62-6.32 1.62-6.32.8 1.52 3.13 2.86 5.61 2.86 7.39 0 12.4-6.73 12.4-15.75C39.48 10.35 33.71 4 24.94 4z"/></svg>