<svg xmlns="http://www.w3.org/2000/svg" width="24" height="24" fill="currentColor" role="img" viewBox="0 0 48 48"><path d="M42.5 16H36V7.5A1.5 1.5 0 0034.5 6h-21A1.5 1.5 0 0012 7.5V16H5.5A1.5 1.5 0 004 17.5v15A1.5 1.5 0 005.5 34H12v6.5a1.5 1.5 0 001.5 1.5h21a1.5 1.5 0 001.5-1.5V34h6.5a1.5 1.5 0 001.5-1.5v-15a1.5 1.5 0 00-1.5-1.5zM15 9h18v7H15zm18 19v11H15V28zm2.34-2.74a1.49 1.49 0 00-.84-.26h-21a1.5 1.5 0 00-1.5 1.5V31H7V19h34v12h-5v-4.5a1.5 1.5 0 00-.66-1.24z"/><circle cx="38.5" cy="21.5" r="1.5"/></svg>