<svg xmlns="http://www.w3.org/2000/svg" width="24" height="24" fill="currentColor" role="img" viewBox="0 0 48 48"><path d="M24 8.5A17.5 17.5 0 1041.5 26 17.52 17.52 0 0024 8.5zm0 32A14.5 14.5 0 1138.5 26 14.52 14.52 0 0124 40.5z"/><path d="M19.5 26.94a1.5 1.5 0 001.5-1.5v-3a1.5 1.5 0 00-3 0v3a1.5 1.5 0 001.5 1.5zM28.5 26.94a1.5 1.5 0 001.5-1.5v-3a1.5 1.5 0 00-3 0v3a1.5 1.5 0 001.5 1.5zM29.34 31.65a11.27 11.27 0 01-10.68 0 1.5 1.5 0 00-1.33 2.69A14.86 14.86 0 0024 36a15.06 15.06 0 006.68-1.65 1.5 1.5 0 10-1.32-2.69zM5 30.5v-9h1.07a18.34 18.34 0 011-3H3.5A1.5 1.5 0 002 20v12a1.5 1.5 0 001.5 1.5h3.6a18.36 18.36 0 01-1-3zM44.5 18.5h-3.6a18.36 18.36 0 011 3H43v9h-1.07a18.34 18.34 0 01-1 3h3.6A1.5 1.5 0 0046 32V20a1.5 1.5 0 00-1.5-1.5zM25.5 7.58V5.5a1.5 1.5 0 00-3 0v2.08c.5 0 1-.08 1.5-.08s1 .04 1.5.08z"/></svg>