<svg xmlns="http://www.w3.org/2000/svg" width="24" height="24" fill="currentColor" role="img" viewBox="0 0 48 48"><path d="M41.5 26H38V15a7 7 0 00-3-5.72A7 7 0 0031 8V6a3.75 3.75 0 00-.15-1A4 4 0 0027 2h-6a4 4 0 00-3.84 3A3.59 3.59 0 0017 6v2a7 7 0 00-4 1.27A7.08 7.08 0 0011.28 11 6.93 6.93 0 0010 14.91V26H6.5A1.5 1.5 0 005 27.5v14A1.5 1.5 0 006.5 43H10v.5a1.5 1.5 0 001.5 1.5h25a1.5 1.5 0 001.5-1.5V43h3.5a1.5 1.5 0 001.5-1.5v-14a1.5 1.5 0 00-1.5-1.5zM10 40H8V29h2zM20 6a1 1 0 011-1h6a1 1 0 011 1v2h-8zm15 36H13V27h2.5v1.5a1.5 1.5 0 003 0V27H35zm0-21.26V24H13v-9a4 4 0 014-4h14a4 4 0 014 4zM40 40h-2V29h2z"/></svg>