<svg xmlns="http://www.w3.org/2000/svg" viewBox="0 0 48 48"><path d="M9 42.5v-37A1.5 1.5 0 0 1 10.5 4h16.88a1.5 1.5 0 0 1 1.06.44l10.12 10.12a1.5 1.5 0 0 1 .44 1.06v11a1.5 1.5 0 1 1-3 0V16l-9-9H12v34h11.7a1.5 1.5 0 1 1 0 3H10.5A1.5 1.5 0 0 1 9 42.5zm30-7.76a1.53 1.53 0 0 1-.48 1l-7.78 7.77a1.49 1.49 0 0 1-2.11 0 1.51 1.51 0 0 1 0-2.12l5.22-5.22H16.51a1.5 1.5 0 0 1-1.5-1.5 1.53 1.53 0 0 1 1.5-1.47H33.9L28.68 28a1.51 1.51 0 0 1 0-2.12 1.49 1.49 0 0 1 2.11 0l7.78 7.77a1.52 1.52 0 0 1 .43 1.09z"/></svg>