<svg xmlns="http://www.w3.org/2000/svg" width="24" height="24" fill="currentColor" role="img" viewBox="0 0 48 48"><path d="M37.95 11.23c-4.273 0-6.75-.45-6.75-4.692C31.2 5.69 30.506 5 29.65 5h-11.3c-.856 0-1.55.69-1.55 1.538 0 4.242-2.477 4.693-6.75 4.693-.856 0-1.55.689-1.55 1.538V23c0 9.18 13.999 19.285 14.595 19.71a1.56 1.56 0 001.81 0C25.502 42.285 39.5 32.18 39.5 23V12.77c0-.85-.694-1.54-1.55-1.54zM36.4 23c0 5.85-8.245 13.364-12.4 16.542C19.844 36.367 11.6 28.858 11.6 23v-8.802c4.745-.676 7.508-1.412 8.19-6.121h8.42c.681 4.71 3.445 5.445 8.19 6.121V23z"/></svg>