<svg xmlns="http://www.w3.org/2000/svg" width="24" height="24" fill="currentColor" role="img" viewBox="0 0 48 48"><path d="M23.713 16a8 8 0 110 16 8 8 0 010-16zm0 3a5 5 0 100 10 5 5 0 000-10zm0-9C12.58 10 4.253 18.728 1.965 21.402a3.979 3.979 0 000 5.196C4.252 29.272 12.58 38 23.713 38c11.133 0 19.46-8.728 21.748-11.402a3.979 3.979 0 000-5.196C43.173 18.728 34.846 10 23.713 10m0 3c9.887 0 17.451 7.993 19.468 10.352a.992.992 0 010 1.296C41.164 27.007 33.601 35 23.713 35c-9.887 0-17.45-7.993-19.468-10.352a.992.992 0 010-1.296C6.262 20.993 13.826 13 23.713 13"/></svg>