<svg xmlns="http://www.w3.org/2000/svg" viewBox="0 0 48 48" role="img"><path d="M24.003 16a8 8 0 110 16 8 8 0 010-16zm0 3a5 5 0 100 10 5 5 0 000-10zm0-9C12.87 10 4.543 18.728 2.255 21.402a3.979 3.979 0 000 5.196C4.542 29.272 12.87 38 24.003 38c11.133 0 19.46-8.728 21.748-11.402a3.979 3.979 0 000-5.196C43.463 18.728 35.136 10 24.003 10m0 3c9.887 0 17.451 7.993 19.468 10.352a.992.992 0 010 1.296C41.454 27.007 33.891 35 24.003 35c-9.887 0-17.45-7.993-19.468-10.352a.992.992 0 010-1.296C6.552 20.993 14.116 13 24.003 13"/></svg>