<svg xmlns="http://www.w3.org/2000/svg" width="24" height="24" fill="currentColor" role="img" viewBox="0 0 48 48"><path d="M33 42H15v1.5a1.5 1.5 0 01-1.5 1.5h-6A1.5 1.5 0 016 43.5V33.197a6 6 0 014.385-11.037l-.827-9.648A6 6 0 0115.536 6h16.928a6 6 0 015.978 6.512l-.827 9.649A6 6 0 0142 33.198V43.5a1.5 1.5 0 01-1.5 1.5h-6a1.5 1.5 0 01-1.5-1.5V42zm-18-3h18v-6H15v6zm0-11v2h18v-2a5.99 5.99 0 011.437-3.897l1.016-11.847A3 3 0 0032.463 9H15.537a3 3 0 00-2.989 3.256l1.016 11.847A5.99 5.99 0 0115 28zM9 42h3V28a3 3 0 10-4.498 2.6L9 31.467V42zm27 0h3V31.467l1.498-.867A3 3 0 1036 28v14z"/></svg>