<svg xmlns="http://www.w3.org/2000/svg" width="24" height="24" fill="currentColor" role="img" viewBox="0 0 48 48"><path d="M26 36h9.009A3.001 3.001 0 0038 32.992V9.008A2.997 2.997 0 0035.009 6H26V4.005a2 2 0 10-4 0V6h-9.009A3.001 3.001 0 0010 9.008v23.984A2.997 2.997 0 0012.991 36H22v7h-2.504C18.68 43 18 43.672 18 44.5c0 .834.67 1.5 1.496 1.5h9.008C29.32 46 30 45.328 30 44.5c0-.834-.67-1.5-1.496-1.5H26v-7zM13 22l-.01-13L35 9.008V12L13 22zm0 10.992V30l22-10s.002 13 .009 13c0 0-22.009-.002-22.009-.008z"/></svg>