<svg xmlns="http://www.w3.org/2000/svg" width="24" height="24" fill="currentColor" role="img" viewBox="0 0 48 48"><path d="M44 19.57v-.14a1.49 1.49 0 000-.15v-.11a1.47 1.47 0 00-.06-.17v-.08a1.5 1.5 0 00-.1-.18l-.06-.06-.12-.14-.1-.08-.13-.1-.12-.06-.31-.1H29.56L25.45 5.23v-.09a1.5 1.5 0 00-.27-.48 1.5 1.5 0 00-.19-.18l-.2-.13h-.07l-.15-.07h-.87l-.15.07h-.07l-.2.13a1.5 1.5 0 00-.19.18 1.5 1.5 0 00-.27.48v.09L18.36 18.1H5.1l-.1.1-.13.06-.13.07-.11.08-.12.1-.1.12-.07.08-.08.14-.13.15v.12a1.46 1.46 0 000 .16v.1a1.49 1.49 0 000 .19v.09a1.51 1.51 0 000 .18v.12a1.51 1.51 0 000 .15l.06.12.08.14.08.11.1.12.11.1.09.08L15 28.37 10.93 41v.13a1.48 1.48 0 00.23 1.24 1.5 1.5 0 002.1.33L24 34.89l10.79 7.84a1.5 1.5 0 002.1-.33 1.48 1.48 0 00.23-1.24v-.13L33 28.37l10.41-7.56.07-.06.13-.12.08-.1.1-.13.06-.11.07-.15v-.12a1.52 1.52 0 000-.16v-.26c0-.04.08-.02.08-.03z"/></svg>