<svg xmlns="http://www.w3.org/2000/svg" width="24" height="24" fill="currentColor" role="img" viewBox="0 0 48 48"><path d="M36.43 18.89l-5.24-6.25L27 28.24v.12a1.49 1.49 0 01-.12.24 1.48 1.48 0 01-.16.21l-.19.17-.19.11h-.09l-.17.06h-.82l-.22-.08h-.05l-.32-.07a1.49 1.49 0 01-.19-.18l-.08-.09L20.16 23l-6 6.85a1.5 1.5 0 01-2.25-2l7.23-8.21a1.48 1.48 0 012.38.06l3.45 4.74L29 9.11A1.5 1.5 0 0130.63 8h.26a1.49 1.49 0 01.78.49L38.73 17a1.5 1.5 0 01-2.3 1.93z"/><path d="M40.5 37H9V7.5a1.5 1.5 0 00-3 0v31A1.5 1.5 0 007.5 40h33a1.5 1.5 0 100-3z"/></svg>