<svg xmlns="http://www.w3.org/2000/svg" width="24" height="24" fill="currentColor" role="img" viewBox="0 0 48 48"><path d="M14.15 18.89l5.24-6.25 4.18 15.59v.12a1.49 1.49 0 00.12.24 1.48 1.48 0 00.16.21l.19.17.19.11h.09l.17.06h.82l.22-.08h.05l.21-.13a1.49 1.49 0 00.19-.18l.08-.09L30.42 23l6 6.85a1.5 1.5 0 002.25-2l-7.23-8.21a1.48 1.48 0 00-2.38.06l-3.45 4.74-4.06-15.33A1.5 1.5 0 0020 8h-.3a1.49 1.49 0 00-.78.49L11.85 17a1.5 1.5 0 002.3 1.93z"/><path d="M40.5 37H9V7.5a1.5 1.5 0 00-3 0v31A1.5 1.5 0 007.5 40h33a1.5 1.5 0 100-3z"/></svg>