<svg xmlns="http://www.w3.org/2000/svg" width="24" height="24" fill="currentColor" role="img" viewBox="0 0 48 48"><path d="M24 15a9 9 0 109 9 9 9 0 00-9-9zm0 15a6 6 0 116-6 6 6 0 01-6 6zm0 6a1.5 1.5 0 00-1.5 1.5v5a1.5 1.5 0 003 0v-5A1.5 1.5 0 0024 36zm10.61-3.52a1.5 1.5 0 00-2.12 2.12L36 38.14A1.5 1.5 0 1038.14 36zm7.89-9.98h-5a1.5 1.5 0 000 3h5a1.5 1.5 0 000-3zm-7.89-6.99L38.14 12A1.5 1.5 0 1036 9.86l-3.54 3.54a1.5 1.5 0 102.12 2.12zM24 12a1.5 1.5 0 001.5-1.5v-5a1.5 1.5 0 00-3 0v5A1.5 1.5 0 0024 12zm-10.61 3.52a1.5 1.5 0 002.12-2.12L12 9.86A1.5 1.5 0 109.86 12zM12 24a1.5 1.5 0 00-1.5-1.5h-5a1.5 1.5 0 000 3h5A1.5 1.5 0 0012 24zm1.39 8.49L9.86 36A1.5 1.5 0 0012 38.14l3.54-3.54a1.5 1.5 0 10-2.12-2.12z"/></svg>