<svg xmlns="http://www.w3.org/2000/svg" width="24" height="24" fill="currentColor" role="img" viewBox="0 0 48 48"><path d="M44.5 18h-8.88L25.06 7.44A1.51 1.51 0 0024 7a1.49 1.49 0 00-1.06.44L12.38 18H3.5a1.5 1.5 0 000 3h1.21L8 39.76a1.46 1.46 0 00.63.94 1.55 1.55 0 00.22.12h.07l.2.07H39l.14-.08.11-.06.13-.12.09-.07.12-.14.06-.08a.8.8 0 00.08-.16.31.31 0 00.05-.1.43.43 0 000-.16.56.56 0 000-.12L43.29 21h1.21a1.5 1.5 0 000-3zM24 10.62L31.38 18H16.62zM37.24 38H10.75l-3-17h32.49z"/><path d="M14 28h20a1.5 1.5 0 000-3H14a1.5 1.5 0 000 3zM32.5 31h-17a1.5 1.5 0 000 3h17a1.5 1.5 0 000-3z"/></svg>