<svg xmlns="http://www.w3.org/2000/svg" width="24" height="24" fill="currentColor" role="img" viewBox="0 0 48 48"><path d="M42.69 21.4a6.32 6.32 0 00-3.91-2.48h-7.2a45.62 45.62 0 00.42-5.73c0-3-.8-5.1-2.38-6.26a5.16 5.16 0 00-4.37-.73 1.5 1.5 0 00-1 1.12c-1.73 8.21-3.69 10-4.25 10.3a35.7 35.7 0 00-4 2.94V19.5a1.5 1.5 0 00-1.5-1.5h-9A1.5 1.5 0 004 19.5v21A1.5 1.5 0 005.5 42h9a1.5 1.5 0 001.5-1.5v-1.28h.38A10.15 10.15 0 0121.6 41l.46.27a10.78 10.78 0 004.68.9h7.47A5.77 5.77 0 0040 38c.1-.34 2.37-8.36 3.27-12.3a5.31 5.31 0 00-.58-4.3zM7 21h6v18H7zm33.4 4c-.89 3.87-3.21 12.07-3.26 12.23a2.74 2.74 0 01-2.94 1.91h-7.13a9.07 9.07 0 01-3.53-.51l-.44-.25a13 13 0 00-6.73-2.14H16V24.53l.09-.06a41.47 41.47 0 015.47-4.3c2.22-1.36 4-5 5.38-11.17a1.8 1.8 0 01.93.34c.74.56 1.15 1.93 1.15 3.84a49.31 49.31 0 01-.66 7 1.5 1.5 0 001.48 1.76h8.52a3.33 3.33 0 011.83 1.16 2.4 2.4 0 01.21 1.9z"/></svg>