<svg xmlns="http://www.w3.org/2000/svg" width="24" height="24" fill="currentColor" role="img" viewBox="0 0 48 48"><path d="M43.32 22.34c-.9-3.94-3.18-12-3.25-12.22a5.78 5.78 0 00-5.86-4.24h-7.05a11.56 11.56 0 00-5.09.9L21.6 7a10.14 10.14 0 01-5.21 1.74H16V7.5A1.5 1.5 0 0014.5 6h-9A1.5 1.5 0 004 7.5v21A1.5 1.5 0 005.5 30h9a1.5 1.5 0 001.5-1.5v-1.06a35.71 35.71 0 004 2.94c.56.34 2.52 2.1 4.25 10.3a1.5 1.5 0 001 1.12 5.24 5.24 0 001.46.2 4.84 4.84 0 002.91-.93c1.6-1.16 2.38-3.27 2.38-6.26a45.62 45.62 0 00-.44-5.71h7.2a6.32 6.32 0 003.91-2.48 5.31 5.31 0 00.65-4.28zM7 9h6v18H7zm33.2 15.93a3.3 3.3 0 01-1.84 1.17h-8.52a1.5 1.5 0 00-1.48 1.76 49.31 49.31 0 01.66 7c0 1.91-.41 3.28-1.15 3.84a1.8 1.8 0 01-.93.34c-1.4-6.15-3.16-9.81-5.38-11.17a41.48 41.48 0 01-5.47-4.3l-.09-.1V11.78h.38a13 13 0 006.72-2.14l.44-.25a9.14 9.14 0 013.57-.51h7.1a2.76 2.76 0 013 2c0 .08 2.35 8.28 3.24 12.15a2.41 2.41 0 01-.25 1.9z"/></svg>