<svg xmlns="http://www.w3.org/2000/svg" width="24" height="24" fill="currentColor" role="img" viewBox="0 0 48 48"><path d="M33 41h-1.69l2.8 6h3.31l-2.9-6.2A5.81 5.81 0 0133 41zM13.48 40.8l-2.9 6.2h3.31l2.8-6H15a5.81 5.81 0 01-1.52-.2z"/><path d="M38.59 5.3a6.06 6.06 0 00-4.69-3.77l-.47-.05h-.11A90.31 90.31 0 0024 1a90.17 90.17 0 00-9.32.47h-.11l-.47.05A6 6 0 009 7.46V34a6 6 0 004.48 5.8A5.81 5.81 0 0015 40h18a5.81 5.81 0 001.52-.2A6 6 0 0039 34V7.46a6 6 0 00-.41-2.16zM20 4.09L21.3 4H26l2 .07c1.74.07 3.34.2 4.83.36-.33 2.59-.58 5.41-.72 8.4Q32 15.82 32 19v.26a5 5 0 01-4.71 4.71h-6.5A5 5 0 0116 19.23a2.3 2.3 0 010-.23c0-2.1-.05-4.15-.15-6.12-.14-3-.39-5.81-.72-8.4 1.49-.19 3.09-.32 4.87-.39zm16 5.07V34a3 3 0 01-3 3H15a3 3 0 01-3-3V7.46a3 3 0 01.31-1.31A111.9 111.9 0 0113 19v.48a8.08 8.08 0 00.76 2.95 7.8 7.8 0 00.75 1.28 8.89 8.89 0 001.32 1.42A8 8 0 0020.94 27H27.08a8 8 0 005.09-1.88 8.89 8.89 0 001.32-1.42 7.8 7.8 0 00.75-1.28 8.08 8.08 0 00.76-2.98V19a111.9 111.9 0 01.69-12.82A3 3 0 0136 7.46z" data-name="Train"/><circle cx="18" cy="32" r="2"/><circle cx="30" cy="32" r="2"/><circle cx="24" cy="8" r="2"/></svg>