<svg xmlns="http://www.w3.org/2000/svg" width="24" height="24" fill="currentColor" role="img" viewBox="0 0 48 48"><g data-name="Tram v4"><circle cx="19" cy="34" r="2"/><path d="M29 32a2 2 0 102 2 2 2 0 00-2-2zM32 42h-1.23l2.34 5h3.31l-2.52-5.39A5 5 0 0132 42zM16.23 42H16a5 5 0 01-1.9-.39L11.58 47h3.31l2.34-5h-1z"/><path d="M32 6h-6.5V4h5a1.5 1.5 0 000-3h-13a1.5 1.5 0 000 3h5v2H16a5 5 0 00-5 5v25a5 5 0 005 5h16a5 5 0 005-5V11a5 5 0 00-5-5zm-3 9.88v9a.84.84 0 010 .12c0 .5-1.77 2-5 2s-5-1.5-5-2a.84.84 0 010-.12V9h10zM34 36a2 2 0 01-2 2H16a2 2 0 01-2-2V11a2 2 0 012-2v16c0 2.76 3.58 5 8 5s8-2.24 8-5V9a2 2 0 012 2z"/></g></svg>