<svg xmlns="http://www.w3.org/2000/svg" width="24" height="24" fill="currentColor" role="img" viewBox="0 0 48 48"><g data-name="Trash"><path d="M37.5 8h-27a1.5 1.5 0 000 3h27a1.5 1.5 0 000-3zM19.5 7h9a1.5 1.5 0 000-3h-9a1.5 1.5 0 000 3zM35.5 14a1.5 1.5 0 00-1.5 1.5V38a3 3 0 01-3 3H17a3 3 0 01-3-3V15.5a1.5 1.5 0 00-3 0v23a1.37 1.37 0 00.09.49A6 6 0 0017 44h14a6 6 0 005.91-5 1.63 1.63 0 00.09-.5v-23a1.5 1.5 0 00-1.5-1.5z"/></g><rect width="3" height="24" x="17" y="14" rx="1.5" ry="1.5"/><rect width="3" height="24" x="28" y="14" rx="1.5" ry="1.5"/></svg>