<svg xmlns="http://www.w3.org/2000/svg" width="24" height="24" fill="currentColor" role="img" viewBox="0 0 48 48"><path d="M15.851 34h16.27l3.44 3.46a1.5 1.5 0 01.33.49c.071.175.109.361.11.55a1.49 1.49 0 01-.15.59 1.5 1.5 0 01-.32.49 1.5 1.5 0 01-.49.32 1.49 1.49 0 01-.54.1h-21a1.5 1.5 0 01-1.41-2.01 1.49 1.49 0 01.26-.45 1.41 1.41 0 01.09-.13l3.41-3.41zm15.02 3l-3.01-3h-7.86a1.43 1.43 0 01-.13.23L17.101 37h13.77zM10 8h29a3 3 0 013 3v20a3 3 0 01-3 3H10a3 3 0 01-3-3V11a3 3 0 013-3zm.001 23h29V11h-29v20z"/></svg>