<svg xmlns="http://www.w3.org/2000/svg" viewBox="0 0 48 48" xmlns:xlink="http://www.w3.org/1999/xlink" role="img"><defs><path id="a" d="M33.227 28.11C35.95 28.582 38 30.593 38 33v5.5a1.5 1.5 0 003 0v-6a1.48 1.48 0 00-.06-.4C40.436 28.107 36.628 25 32 25c-.117 0-.23.012-.346.016-.052-.006-.102-.016-.155-.016h-.237a10.74 10.74 0 011.965 3.11zM28.504 8.457a7 7 0 11-1.05 12.58 11.004 11.004 0 001.591-2.549 3.976 3.976 0 001.954.511c2.206 0 4-1.794 4-4a4.004 4.004 0 00-5.35-3.766 10.933 10.933 0 00-1.145-2.776zM30.94 31.1c.035.128.06.26.06.399v9a1.5 1.5 0 01-3 0V32c0-2.446-2.12-4.483-4.907-4.913a7.156 7.156 0 00-1.09-.087h-6.007c-.373 0-.735.033-1.089.087C12.12 27.517 10 29.554 10 32v8.5a1.5 1.5 0 01-3 0v-9c0-.14.025-.271.06-.4.504-3.994 4.312-7.1 8.94-7.1.117 0 .23.012.345.015.052-.005.102-.015.154-.015h5c.053 0 .103.01.155.016.116-.004.23-.016.346-.016 4.628 0 8.436 3.106 8.94 7.1zM19 6a8 8 0 110 16 8 8 0 010-16zm0 3c-2.757 0-5 2.243-5 5s2.243 5 5 5 5-2.243 5-5-2.243-5-5-5z"/></defs><use xlink:href="#a"/></svg>