<svg xmlns="http://www.w3.org/2000/svg" width="24" height="24" fill="currentColor" role="img" viewBox="0 0 48 48"><path d="M25.89 15.5H43.5a1.5 1.5 0 000-3H25.89A11 11 0 0126 14a11 11 0 01-.11 1.5zM43.5 22.5H24.12a8.93 8.93 0 014.31 3H43.5a1.5 1.5 0 000-3zM43.5 32.5H30v3h13.5a1.5 1.5 0 000-3zM18 24h-6c-4.63 0-8.44 3.11-8.94 7.1a1.48 1.48 0 00-.06.4v8a1.5 1.5 0 003 0V32c0-2.45 2.12-4.48 4.91-4.91A7.16 7.16 0 0112 27h6a7.16 7.16 0 011.09.09C21.88 27.52 24 29.55 24 32v7.5a1.5 1.5 0 003 0v-8a1.48 1.48 0 00-.06-.4c-.5-3.99-4.31-7.1-8.94-7.1zM15 22a8 8 0 10-8-8 8 8 0 008 8zm0-13a5 5 0 11-5 5 5 5 0 015-5z"/></svg>