<svg xmlns="http://www.w3.org/2000/svg" width="24" height="24" fill="currentColor" role="img" viewBox="0 0 48 48"><path d="M33.23 28.1c2.72.48 4.77 2.5 4.77 4.9v5.5a1.5 1.5 0 003 0v-6c0-.14-.02-.27-.06-.4-.5-4-4.31-7.1-8.94-7.1l-.35.02-.15-.02h-.24c.83.92 1.5 1.96 1.97 3.1zM28.5 8.47A6.98 6.98 0 0138 15a7 7 0 01-10.55 6.04 11 11 0 001.6-2.55 4 4 0 10.6-7.25c-.26-1-.64-1.92-1.15-2.78zm2.44 22.64c.04.13.06.26.06.4v9a1.5 1.5 0 01-3 0V32c0-2.45-2.12-4.48-4.9-4.91A7.16 7.16 0 0022 27h-6c-.38 0-.74.03-1.1.09-2.78.43-4.9 2.46-4.9 4.91v8.5a1.5 1.5 0 01-3 0v-9c0-.14.03-.27.06-.4.5-4 4.31-7.1 8.94-7.1l.35.02.15-.02h5l.15.02L22 24c4.63 0 8.44 3.1 8.94 7.1zM19 6a8 8 0 110 16 8 8 0 010-16zm0 3a5 5 0 10.01 10.01A5 5 0 0019 9z"/></svg>