<svg xmlns="http://www.w3.org/2000/svg" width="24" height="24" fill="currentColor" role="img" viewBox="0 0 48 48"><g id="Concept"><rect width="48" height="48" style="fill:none"/></g><g id="Productie"><path d="M44.5,7a1.54,1.54,0,0,0-.82.24s0,0,0,0C39.4,10.15,32.1,12.1,24,12.1S8.6,10.15,4.36,7.28l0,0A1.54,1.54,0,0,0,3.5,7,1.5,1.5,0,0,0,2,8.5v31A1.5,1.5,0,0,0,3.5,41a1.54,1.54,0,0,0,.82-.24s0,0,0,0C8.6,37.85,15.9,35.9,24,35.9s15.4,2,19.64,4.82l0,0a1.54,1.54,0,0,0,.82.24A1.5,1.5,0,0,0,46,39.5V8.5A1.5,1.5,0,0,0,44.5,7ZM5,11.09a35.08,35.08,0,0,0,10,3.22V33.69A35.08,35.08,0,0,0,5,36.91ZM18,33.25V14.75a52.75,52.75,0,0,0,6,.35,52.75,52.75,0,0,0,6-.35v18.5a51.6,51.6,0,0,0-12,0Zm25,3.66a35.08,35.08,0,0,0-10-3.22V14.31a35.08,35.08,0,0,0,10-3.22Z"/></g></svg>