<svg xmlns="http://www.w3.org/2000/svg" width="24" height="24" fill="currentColor" role="img" viewBox="0 0 48 48"><path d="M13 17a6 6 0 106 6 6 6 0 00-6-6zm0 9a3 3 0 113-3 3 3 0 01-3 3zM35 17a6 6 0 106 6 6 6 0 00-6-6zm0 9a3 3 0 113-3 3 3 0 01-3 3z"/><path d="M41 10H7a6 6 0 00-6 6v16a6 6 0 006 6h13.23l.64-3 .2-.94.93-4.41v-.1a2 2 0 013.88 0v.14l.93 4.4.2.94.64 3H41a6 6 0 006-6V16a6 6 0 00-6-6zm3 22a3 3 0 01-3 3H30.14l-1.26-5.94v-.15a4.89 4.89 0 00-.15-.47 5 5 0 00-9.44 0 4.91 4.91 0 00-.16.53v.12L17.8 35H7a3 3 0 01-3-3V16a3 3 0 013-3h34a3 3 0 013 3z"/></svg>