<svg xmlns="http://www.w3.org/2000/svg" width="24" height="24" fill="currentColor" role="img" viewBox="0 0 48 48"><path d="M24.47 15a6 6 0 10-6-6 6 6 0 006 6zm0-9a3 3 0 11-3 3 3 3 0 013-3zM32.28 26.41l-5.66-3.54L24 17a1.52 1.52 0 00-1.1-1.05 1.5 1.5 0 00-1.31.33l-7.42 4.64a1.49 1.49 0 00-.49.51 1.23 1.23 0 00-.17.32l-1.71 4.7a1.49 1.49 0 00.89 1.92 1.51 1.51 0 001.93-.89l1.55-4.28 4.11-2.57-1.76 7.62a1.52 1.52 0 000 .6 1.44 1.44 0 00.22.71l8.86 14.18a1.5 1.5 0 002.07.48h.08a1.5 1.5 0 00.48-2.07l-8.65-13.83L23 22.13l1 2.28a1.32 1.32 0 00.38.51 1.53 1.53 0 00.35.32L30.69 29a1.5 1.5 0 001.59-2.54z"/><path d="M17.52 32.85a1.5 1.5 0 00-1.74 1.21l-.56 3.16-3.92 5.4a1.5 1.5 0 002.43 1.76l4.11-5.66a1.49 1.49 0 00.27-.67v-.15l.59-3.32a1.5 1.5 0 00-1.18-1.73z"/></svg>