<svg xmlns="http://www.w3.org/2000/svg" width="24" height="24" fill="currentColor" role="img" viewBox="0 0 48 48"><path d="M45.79 41.26l.08-.14V41a1.5 1.5 0 000-.16v-.12a1.49 1.49 0 000-.18v-.07a1.48 1.48 0 000-.18v-.13a1.49 1.49 0 000-.15l-.06-.14v-.08L25.3 4.24l-.05-.07-.09-.17-.1-.11-.06-.05-.14-.1h-.07l-.15-.07H23.53l-.15.07h-.07l-.14.1-.1.09-.1.11-.09.12-.05.07L2.2 39.75v.07l-.1.18v.13a1.26 1.26 0 000 .3v.14a1.48 1.48 0 000 .16V41a1.49 1.49 0 00.05.14l.07.12.08.13.09.11.1.11.11.09.13.09h.08l.19.11H45.03l.14-.06h.08l.12-.09.12-.1.09-.09.1-.13zM24 8l17.9 31H6.1z"/><rect width="3" height="15" x="22.5" y="16" rx="1.5" ry="1.5" transform="rotate(180 24 23.5)"/><rect width="3" height="3" x="22.5" y="33" rx="1.5" ry="1.5" transform="rotate(-180 24 34.5)"/></svg>