<svg xmlns="http://www.w3.org/2000/svg" width="24" height="24" fill="currentColor" role="img" viewBox="0 0 48 48"><path d="M38.17 9.84a19.92 19.92 0 00-31.35 24L4 44.19l10.56-2.77a19.9 19.9 0 009.52 2.42 19.92 19.92 0 0014.09-34zM24.08 40.48a16.53 16.53 0 01-8.43-2.31l-.6-.36-6.27 1.65 1.67-6.11-.39-.63a16.55 16.55 0 1114 7.76z"/><path d="M34.12 28.67c-.12-.21-.46-.33-1-.58s-2.94-1.45-3.4-1.62-.79-.25-1.12.25-1.29 1.62-1.58 2-.58.37-1.08.12a13.59 13.59 0 01-4-2.47 15 15 0 01-2.77-3.45c-.29-.5 0-.77.22-1s.5-.58.75-.87a3.4 3.4 0 00.5-.83.92.92 0 000-.87c-.12-.25-1.12-2.7-1.53-3.7s-.81-.84-1.12-.85h-1a1.83 1.83 0 00-1.33.62A5.58 5.58 0 0014 19.49a9.68 9.68 0 002 5.15c.25.33 3.51 5.36 8.5 7.51a28.57 28.57 0 002.84 1 6.82 6.82 0 003.13.2c1-.14 2.94-1.2 3.36-2.37a4.16 4.16 0 00.29-2.31z"/></svg>